G04 #@! TF.FileFunction,Paste,Bot*
%FSLAX46Y46*%
G04 Gerber Fmt 4.6, Leading zero omitted, Abs format (unit mm)*
G04 Created by KiCad (PCBNEW 4.0.7) date Thu Apr 26 00:57:05 2018*
%MOMM*%
%LPD*%
G01*
G04 APERTURE LIST*
%ADD10C,0.100000*%
%ADD11C,0.600000*%
G04 APERTURE END LIST*
D10*
D11*
X9067307Y-1665000D02*
X8592307Y-615000D01*
X5430769Y-1665000D02*
X4955769Y-615000D01*
X16323076Y-1665000D02*
X15848076Y-615000D01*
X12692307Y-1665000D02*
X12217307Y-615000D01*
X19953845Y-1665000D02*
X19478845Y-615000D01*
X1800000Y-1665000D02*
X1325000Y-615000D01*
X23584614Y-1665000D02*
X23109614Y-615000D01*
X48999997Y-1665000D02*
X48524997Y-615000D01*
X30846152Y-1665000D02*
X30371152Y-615000D01*
X27215383Y-1665000D02*
X26740383Y-615000D01*
X45369228Y-1665000D02*
X44894228Y-615000D01*
X34476921Y-1665000D02*
X34001921Y-615000D01*
X41738459Y-1665000D02*
X41263459Y-615000D01*
X38107690Y-1665000D02*
X37632690Y-615000D01*
X41738459Y-69490000D02*
X41263459Y-68440000D01*
X48999997Y-69490000D02*
X48524997Y-68440000D01*
X45369228Y-69490000D02*
X44894228Y-68440000D01*
X38107690Y-69490000D02*
X37632690Y-68440000D01*
X1800000Y-69490000D02*
X1325000Y-68440000D01*
X5430769Y-69490000D02*
X4955769Y-68440000D01*
X19953845Y-69490000D02*
X19478845Y-68440000D01*
X16323076Y-69490000D02*
X15848076Y-68440000D01*
X23584614Y-69490000D02*
X23109614Y-68440000D01*
X30846152Y-69490000D02*
X30371152Y-68440000D01*
X34476921Y-69490000D02*
X34001921Y-68440000D01*
X27215383Y-69490000D02*
X26740383Y-68440000D01*
X12692307Y-69490000D02*
X12217307Y-68440000D01*
M02*
