G04 #@! TF.FileFunction,Legend,Top*
%FSLAX46Y46*%
G04 Gerber Fmt 4.6, Leading zero omitted, Abs format (unit mm)*
G04 Created by KiCad (PCBNEW 4.0.7) date Thu Apr 26 00:57:05 2018*
%MOMM*%
%LPD*%
G01*
G04 APERTURE LIST*
%ADD10C,0.100000*%
%ADD11C,0.150000*%
%ADD12C,0.203200*%
%ADD13C,0.254000*%
%ADD14C,0.350000*%
%ADD15C,0.200000*%
%ADD16C,0.120000*%
%ADD17C,0.250000*%
%ADD18C,0.300000*%
G04 APERTURE END LIST*
D10*
D11*
X15360714Y-38009524D02*
X15398810Y-38047619D01*
X15436905Y-38161905D01*
X15436905Y-38238095D01*
X15398810Y-38352381D01*
X15322619Y-38428572D01*
X15246429Y-38466667D01*
X15094048Y-38504762D01*
X14979762Y-38504762D01*
X14827381Y-38466667D01*
X14751190Y-38428572D01*
X14675000Y-38352381D01*
X14636905Y-38238095D01*
X14636905Y-38161905D01*
X14675000Y-38047619D01*
X14713095Y-38009524D01*
X15436905Y-37666667D02*
X14636905Y-37666667D01*
X14636905Y-37476191D01*
X14675000Y-37361905D01*
X14751190Y-37285714D01*
X14827381Y-37247619D01*
X14979762Y-37209524D01*
X15094048Y-37209524D01*
X15246429Y-37247619D01*
X15322619Y-37285714D01*
X15398810Y-37361905D01*
X15436905Y-37476191D01*
X15436905Y-37666667D01*
X15017857Y-36600000D02*
X15055952Y-36485714D01*
X15094048Y-36447619D01*
X15170238Y-36409524D01*
X15284524Y-36409524D01*
X15360714Y-36447619D01*
X15398810Y-36485714D01*
X15436905Y-36561905D01*
X15436905Y-36866667D01*
X14636905Y-36866667D01*
X14636905Y-36600000D01*
X14675000Y-36523810D01*
X14713095Y-36485714D01*
X14789286Y-36447619D01*
X14865476Y-36447619D01*
X14941667Y-36485714D01*
X14979762Y-36523810D01*
X15017857Y-36600000D01*
X15017857Y-36866667D01*
X14636905Y-36066667D02*
X15284524Y-36066667D01*
X15360714Y-36028572D01*
X15398810Y-35990476D01*
X15436905Y-35914286D01*
X15436905Y-35761905D01*
X15398810Y-35685714D01*
X15360714Y-35647619D01*
X15284524Y-35609524D01*
X14636905Y-35609524D01*
X15398810Y-35266667D02*
X15436905Y-35152381D01*
X15436905Y-34961905D01*
X15398810Y-34885715D01*
X15360714Y-34847619D01*
X15284524Y-34809524D01*
X15208333Y-34809524D01*
X15132143Y-34847619D01*
X15094048Y-34885715D01*
X15055952Y-34961905D01*
X15017857Y-35114286D01*
X14979762Y-35190477D01*
X14941667Y-35228572D01*
X14865476Y-35266667D01*
X14789286Y-35266667D01*
X14713095Y-35228572D01*
X14675000Y-35190477D01*
X14636905Y-35114286D01*
X14636905Y-34923810D01*
X14675000Y-34809524D01*
X15017857Y-33590476D02*
X15055952Y-33476190D01*
X15094048Y-33438095D01*
X15170238Y-33400000D01*
X15284524Y-33400000D01*
X15360714Y-33438095D01*
X15398810Y-33476190D01*
X15436905Y-33552381D01*
X15436905Y-33857143D01*
X14636905Y-33857143D01*
X14636905Y-33590476D01*
X14675000Y-33514286D01*
X14713095Y-33476190D01*
X14789286Y-33438095D01*
X14865476Y-33438095D01*
X14941667Y-33476190D01*
X14979762Y-33514286D01*
X15017857Y-33590476D01*
X15017857Y-33857143D01*
X15436905Y-32600000D02*
X15055952Y-32866667D01*
X15436905Y-33057143D02*
X14636905Y-33057143D01*
X14636905Y-32752381D01*
X14675000Y-32676190D01*
X14713095Y-32638095D01*
X14789286Y-32600000D01*
X14903571Y-32600000D01*
X14979762Y-32638095D01*
X15017857Y-32676190D01*
X15055952Y-32752381D01*
X15055952Y-33057143D01*
X15436905Y-32257143D02*
X14636905Y-32257143D01*
X15436905Y-31876191D02*
X14636905Y-31876191D01*
X14636905Y-31685715D01*
X14675000Y-31571429D01*
X14751190Y-31495238D01*
X14827381Y-31457143D01*
X14979762Y-31419048D01*
X15094048Y-31419048D01*
X15246429Y-31457143D01*
X15322619Y-31495238D01*
X15398810Y-31571429D01*
X15436905Y-31685715D01*
X15436905Y-31876191D01*
X14675000Y-30657143D02*
X14636905Y-30733334D01*
X14636905Y-30847619D01*
X14675000Y-30961905D01*
X14751190Y-31038096D01*
X14827381Y-31076191D01*
X14979762Y-31114286D01*
X15094048Y-31114286D01*
X15246429Y-31076191D01*
X15322619Y-31038096D01*
X15398810Y-30961905D01*
X15436905Y-30847619D01*
X15436905Y-30771429D01*
X15398810Y-30657143D01*
X15360714Y-30619048D01*
X15094048Y-30619048D01*
X15094048Y-30771429D01*
X15017857Y-30276191D02*
X15017857Y-30009524D01*
X15436905Y-29895238D02*
X15436905Y-30276191D01*
X14636905Y-30276191D01*
X14636905Y-29895238D01*
X14636905Y-29057143D02*
X15436905Y-28790476D01*
X14636905Y-28523809D01*
X14636905Y-28333333D02*
X14636905Y-27838095D01*
X14941667Y-28104762D01*
X14941667Y-27990476D01*
X14979762Y-27914286D01*
X15017857Y-27876190D01*
X15094048Y-27838095D01*
X15284524Y-27838095D01*
X15360714Y-27876190D01*
X15398810Y-27914286D01*
X15436905Y-27990476D01*
X15436905Y-28219048D01*
X15398810Y-28295238D01*
X15360714Y-28333333D01*
X15360714Y-27495238D02*
X15398810Y-27457143D01*
X15436905Y-27495238D01*
X15398810Y-27533333D01*
X15360714Y-27495238D01*
X15436905Y-27495238D01*
X14713095Y-27152381D02*
X14675000Y-27114286D01*
X14636905Y-27038095D01*
X14636905Y-26847619D01*
X14675000Y-26771429D01*
X14713095Y-26733333D01*
X14789286Y-26695238D01*
X14865476Y-26695238D01*
X14979762Y-26733333D01*
X15436905Y-27190476D01*
X15436905Y-26695238D01*
X17400000Y-37125000D02*
X17600000Y-37125000D01*
X17400000Y-39925000D02*
X17400000Y-37125000D01*
X17400000Y-42725000D02*
X17600000Y-42725000D01*
X17400000Y-39925000D02*
X17400000Y-42725000D01*
X26648607Y-37351394D02*
G75*
G03X26648607Y-37351394I-223607J0D01*
G01*
X26000000Y-37125000D02*
X25800000Y-37125000D01*
X26000000Y-39925000D02*
X26000000Y-37125000D01*
X26000000Y-42725000D02*
X25800000Y-42725000D01*
X26000000Y-39925000D02*
X26000000Y-42725000D01*
X33675000Y-56550000D02*
X33375000Y-56850000D01*
X33675000Y-57150000D02*
X33675000Y-56550000D01*
X33375000Y-56850000D02*
X33675000Y-57150000D01*
X35175000Y-56100000D02*
X35175000Y-56000000D01*
X31975000Y-56100000D02*
X31975000Y-56000000D01*
X33575000Y-54750000D02*
X33825000Y-54750000D01*
X33575000Y-54750000D02*
X33325000Y-54750000D01*
X33325000Y-57350000D02*
X33825000Y-57350000D01*
X33475000Y-64400000D02*
X34075000Y-64400000D01*
X33775000Y-64100000D02*
X33475000Y-64400000D01*
X34075000Y-64400000D02*
X33775000Y-64100000D01*
X33225000Y-65300000D02*
X32425000Y-65300000D01*
X34327354Y-63502404D02*
X34327354Y-65302404D01*
X31325000Y-65300000D02*
X31327354Y-63502404D01*
X28325000Y-58300000D02*
X29225000Y-57400000D01*
X29225000Y-57400000D02*
X29225000Y-57200000D01*
X18825000Y-58300000D02*
X18825000Y-57200000D01*
X18825000Y-47900000D02*
X18825000Y-49000000D01*
X29225000Y-47900000D02*
X29225000Y-49000000D01*
X28325000Y-58300000D02*
X28125000Y-58300000D01*
X29225000Y-47900000D02*
X28125000Y-47900000D01*
X18825000Y-47900000D02*
X19925000Y-47900000D01*
X18825000Y-58300000D02*
X19925000Y-58300000D01*
X27625000Y-27425000D02*
G75*
G03X27625000Y-27425000I-200000J0D01*
G01*
X27425000Y-26925000D02*
X27625000Y-26925000D01*
X27425000Y-22925000D02*
X27625000Y-22925000D01*
X32625000Y-22925000D02*
X32425000Y-22925000D01*
X32625000Y-26925000D02*
X32425000Y-26925000D01*
X27425000Y-26925000D02*
X27425000Y-22925000D01*
X32625000Y-26925000D02*
X32625000Y-22925000D01*
D12*
X-1224340Y-55550520D02*
X2677100Y-55550520D01*
X2677100Y-55550520D02*
X2677100Y-67549480D01*
X2677100Y-67549480D02*
X-1224340Y-67549480D01*
X-1224340Y-67549480D02*
X-1224340Y-55550520D01*
X2677100Y-55550520D02*
X6476940Y-55550520D01*
X2677100Y-67549480D02*
X6476940Y-67549480D01*
X10675560Y-67549480D02*
X14574460Y-67549480D01*
X14574460Y-67549480D02*
X14574460Y-55550520D01*
X14574460Y-55550520D02*
X10675560Y-55550520D01*
X10799080Y-33372480D02*
X5460000Y-33372480D01*
X5457460Y-33372480D02*
X-1499600Y-33372480D01*
X10799080Y-2577520D02*
X5460000Y-2577520D01*
X5460000Y-2577520D02*
X-1499600Y-2577520D01*
X-2218420Y-26103000D02*
X-7298420Y-26103000D01*
X-1499600Y-33372480D02*
X-1499600Y-2577520D01*
X-2218420Y-9847000D02*
X-7298420Y-9847000D01*
X-7806420Y-25595000D02*
X-7806420Y-10355000D01*
X10799080Y-33372480D02*
X10799080Y-2577520D01*
X-7806420Y-25595000D02*
G75*
G03X-7298420Y-26103000I508000J0D01*
G01*
X-7298420Y-9847000D02*
G75*
G03X-7806420Y-10355000I0J-508000D01*
G01*
X-1585960Y-26735460D02*
G75*
G03X-2218420Y-26103000I-632460J0D01*
G01*
X-2218420Y-9849540D02*
G75*
G03X-1583420Y-9214540I0J635000D01*
G01*
D11*
X15451491Y-12824839D02*
X17701491Y-12824839D01*
X17701491Y-12824839D02*
X17701491Y-21714839D01*
X17701491Y-21714839D02*
X14851491Y-21714839D01*
X14851491Y-21714839D02*
X14851491Y-13424839D01*
X14851491Y-13424839D02*
X15451491Y-12824839D01*
D13*
X49900000Y-57750000D02*
X51500000Y-57750000D01*
X49900000Y-67550000D02*
X51500000Y-67550000D01*
X39500000Y-67550000D02*
X39500000Y-57750000D01*
X42870200Y-57750000D02*
X46700000Y-57750000D01*
X51500000Y-57750000D02*
X51500000Y-67550000D01*
X46700000Y-67550000D02*
X39500000Y-67550000D01*
D11*
X28710000Y-64690000D02*
X19710000Y-64690000D01*
X28710000Y-62140000D02*
X19710000Y-62140000D01*
X19710000Y-62140000D02*
X19710000Y-64690000D01*
X28710000Y-64690000D02*
X28710000Y-62140000D01*
D14*
X15850000Y-65075000D02*
X16500000Y-65075000D01*
D15*
X16625000Y-65750000D02*
X16625000Y-62325000D01*
X15725000Y-65775000D02*
X15725000Y-62350000D01*
D14*
X35725000Y-61475000D02*
X35725000Y-62125000D01*
D15*
X35050000Y-62250000D02*
X38475000Y-62250000D01*
X35025000Y-61350000D02*
X38450000Y-61350000D01*
D11*
X36050000Y-11675000D02*
G75*
G03X36050000Y-11675000I-111803J0D01*
G01*
X29550000Y-16025000D02*
X29550000Y-12025000D01*
X36050000Y-16025000D02*
X29550000Y-16025000D01*
X36050000Y-12025000D02*
X36050000Y-16025000D01*
X29550000Y-12025000D02*
X36050000Y-12025000D01*
X36050000Y-7050000D02*
G75*
G03X36050000Y-7050000I-111803J0D01*
G01*
X29550000Y-11400000D02*
X29550000Y-7400000D01*
X36050000Y-11400000D02*
X29550000Y-11400000D01*
X36050000Y-7400000D02*
X36050000Y-11400000D01*
X29550000Y-7400000D02*
X36050000Y-7400000D01*
D16*
X27065000Y-10145000D02*
X27065000Y-11075000D01*
X27065000Y-13305000D02*
X27065000Y-12375000D01*
X27065000Y-13305000D02*
X29225000Y-13305000D01*
X27065000Y-10145000D02*
X28525000Y-10145000D01*
D11*
X24100000Y-5800168D02*
X24100000Y-3950000D01*
X28300000Y-3949926D02*
X28300000Y-5800000D01*
X14100000Y-46925000D02*
X12700000Y-46925000D01*
X12700000Y-45925000D02*
X14100000Y-45925000D01*
X14100000Y-47925000D02*
X12700000Y-47925000D01*
X12700000Y-46925000D02*
X14100000Y-46925000D01*
X14100000Y-48925000D02*
X12700000Y-48925000D01*
X12700000Y-47925000D02*
X14100000Y-47925000D01*
X51500000Y-21450000D02*
X42300000Y-21450000D01*
X51500000Y-36850000D02*
X42300000Y-36850000D01*
X51500000Y-36850000D02*
X51500000Y-21450000D01*
X42300000Y-21450000D02*
X42300000Y-36850000D01*
X51500000Y-2900000D02*
X42300000Y-2900000D01*
X51500000Y-18300000D02*
X42300000Y-18300000D01*
X51500000Y-18300000D02*
X51500000Y-2900000D01*
X42300000Y-2900000D02*
X42300000Y-18300000D01*
X-1500000Y-53900000D02*
X7700000Y-53900000D01*
X-1500000Y-35000000D02*
X7700000Y-35000000D01*
X-1500000Y-35000000D02*
X-1500000Y-53900000D01*
X7700000Y-53900000D02*
X7700000Y-35000000D01*
X22400000Y-46000000D02*
X21000000Y-46000000D01*
X21000000Y-45000000D02*
X22400000Y-45000000D01*
X27875000Y-17850000D02*
X29275000Y-17850000D01*
X29275000Y-18850000D02*
X27875000Y-18850000D01*
X13900000Y-51750000D02*
X13900000Y-53150000D01*
X12900000Y-53150000D02*
X12900000Y-51750000D01*
X16725000Y-51350000D02*
X15325000Y-51350000D01*
X15325000Y-50350000D02*
X16725000Y-50350000D01*
X16725000Y-54600000D02*
X15325000Y-54600000D01*
X15325000Y-53600000D02*
X16725000Y-53600000D01*
X16725000Y-56600000D02*
X15325000Y-56600000D01*
X15325000Y-55600000D02*
X16725000Y-55600000D01*
X45120000Y-54390000D02*
X43720000Y-54390000D01*
X43720000Y-53390000D02*
X45120000Y-53390000D01*
X32475000Y-18850000D02*
X31075000Y-18850000D01*
X31075000Y-17850000D02*
X32475000Y-17850000D01*
X35450000Y-52350000D02*
X34050000Y-52350000D01*
X34050000Y-51350000D02*
X35450000Y-51350000D01*
X35450000Y-53300000D02*
X34050000Y-53300000D01*
X34050000Y-52300000D02*
X35450000Y-52300000D01*
X45120000Y-55340000D02*
X43720000Y-55340000D01*
X43720000Y-54340000D02*
X45120000Y-54340000D01*
X45120000Y-56290000D02*
X43720000Y-56290000D01*
X43720000Y-55290000D02*
X45120000Y-55290000D01*
X25275000Y-61550000D02*
X25275000Y-60150000D01*
X26275000Y-60150000D02*
X26275000Y-61550000D01*
X12925000Y-53425000D02*
X12925000Y-54825000D01*
X11925000Y-54825000D02*
X11925000Y-53425000D01*
X12200000Y-44800000D02*
X10800000Y-44800000D01*
X10800000Y-43800000D02*
X12200000Y-43800000D01*
X11000000Y-42550000D02*
X11000000Y-41150000D01*
X12000000Y-41150000D02*
X12000000Y-42550000D01*
X32950000Y-52050000D02*
X31550000Y-52050000D01*
X31550000Y-51050000D02*
X32950000Y-51050000D01*
X13850000Y-53150000D02*
X13850000Y-51750000D01*
X14850000Y-51750000D02*
X14850000Y-53150000D01*
X19350000Y-46200000D02*
X19350000Y-44800000D01*
X20350000Y-44800000D02*
X20350000Y-46200000D01*
X12325000Y-13100000D02*
X12325000Y-14500000D01*
X11325000Y-14500000D02*
X11325000Y-13100000D01*
X36320000Y-55120000D02*
X36320000Y-56520000D01*
X35320000Y-56520000D02*
X35320000Y-55120000D01*
X22800000Y-17850000D02*
X24200000Y-17850000D01*
X24200000Y-18850000D02*
X22800000Y-18850000D01*
X34350000Y-18850000D02*
X32950000Y-18850000D01*
X32950000Y-17850000D02*
X34350000Y-17850000D01*
X25700000Y-21550000D02*
X27100000Y-21550000D01*
X27100000Y-22550000D02*
X25700000Y-22550000D01*
X31550000Y-50100000D02*
X32950000Y-50100000D01*
X32950000Y-51100000D02*
X31550000Y-51100000D01*
X17900000Y-58660000D02*
X16500000Y-58660000D01*
X16500000Y-57660000D02*
X17900000Y-57660000D01*
X26450000Y-46050000D02*
X26450000Y-44650000D01*
X27450000Y-44650000D02*
X27450000Y-46050000D01*
X32950000Y-54050000D02*
X31550000Y-54050000D01*
X31550000Y-53050000D02*
X32950000Y-53050000D01*
X32490000Y-57540000D02*
X33890000Y-57540000D01*
X33890000Y-58540000D02*
X32490000Y-58540000D01*
X11325000Y-20775000D02*
X11325000Y-19375000D01*
X12325000Y-19375000D02*
X12325000Y-20775000D01*
X16275000Y-12300000D02*
X14875000Y-12300000D01*
X14875000Y-11300000D02*
X16275000Y-11300000D01*
X17575000Y-11300000D02*
X18975000Y-11300000D01*
X18975000Y-12300000D02*
X17575000Y-12300000D01*
X12325000Y-16575000D02*
X12325000Y-17975000D01*
X11325000Y-17975000D02*
X11325000Y-16575000D01*
X30920000Y-66430000D02*
X29520000Y-66430000D01*
X29520000Y-65430000D02*
X30920000Y-65430000D01*
X28275000Y-60150000D02*
X28275000Y-61550000D01*
X27275000Y-61550000D02*
X27275000Y-60150000D01*
X33075000Y-32000000D02*
X31675000Y-32000000D01*
X31675000Y-31000000D02*
X33075000Y-31000000D01*
X36450000Y-63550000D02*
X35050000Y-63550000D01*
X35050000Y-62550000D02*
X36450000Y-62550000D01*
X36625000Y-64600000D02*
X34875000Y-64600000D01*
X34875000Y-63600000D02*
X36625000Y-63600000D01*
X36625000Y-66300000D02*
X34875000Y-66300000D01*
X34875000Y-65300000D02*
X36625000Y-65300000D01*
D17*
X15925000Y-56900000D02*
X15925000Y-57300000D01*
D11*
X16425000Y-56750000D02*
X15625000Y-56750000D01*
X15625000Y-57450000D02*
X16425000Y-57450000D01*
D17*
X16125000Y-55300000D02*
X16125000Y-54900000D01*
D11*
X15625000Y-55450000D02*
X16425000Y-55450000D01*
X16425000Y-54750000D02*
X15625000Y-54750000D01*
D17*
X9200000Y-41700000D02*
X8800000Y-41700000D01*
D11*
X9350000Y-42200000D02*
X9350000Y-41400000D01*
X8650000Y-41400000D02*
X8650000Y-42200000D01*
D17*
X9200000Y-44700000D02*
X8800000Y-44700000D01*
D11*
X9350000Y-45200000D02*
X9350000Y-44400000D01*
X8650000Y-44400000D02*
X8650000Y-45200000D01*
D17*
X9200000Y-48700000D02*
X8800000Y-48700000D01*
D11*
X9350000Y-49200000D02*
X9350000Y-48400000D01*
X8650000Y-48400000D02*
X8650000Y-49200000D01*
D15*
X48450000Y-50450000D02*
G75*
G03X48450000Y-50450000I-200000J0D01*
G01*
D11*
X47250000Y-51750000D02*
X46850000Y-52150000D01*
X47550000Y-52150000D02*
X47250000Y-51750000D01*
X46850000Y-52150000D02*
X47550000Y-52150000D01*
X48393000Y-50780000D02*
X48393000Y-53320000D01*
X46107000Y-53320000D02*
X46107000Y-50780000D01*
D18*
X37631000Y-52177000D02*
X36869000Y-52177000D01*
D11*
X37885000Y-50780000D02*
X37885000Y-53320000D01*
X36615000Y-53320000D02*
X36615000Y-50780000D01*
D18*
X42631000Y-52177000D02*
X41869000Y-52177000D01*
D11*
X42885000Y-50780000D02*
X42885000Y-53320000D01*
X41615000Y-53320000D02*
X41615000Y-50780000D01*
D17*
X40050000Y-23900000D02*
X40450000Y-23900000D01*
D11*
X39900000Y-23400000D02*
X39900000Y-24200000D01*
X40600000Y-24200000D02*
X40600000Y-23400000D01*
D17*
X12225000Y-52450000D02*
X12625000Y-52450000D01*
D11*
X12075000Y-51950000D02*
X12075000Y-52750000D01*
X12775000Y-52750000D02*
X12775000Y-51950000D01*
X15966000Y-6707000D02*
X15966000Y-2643000D01*
X13934000Y-6707000D02*
X13934000Y-2643000D01*
X33041000Y-6707000D02*
X33041000Y-2643000D01*
X31009000Y-6707000D02*
X31009000Y-2643000D01*
X17966000Y-6707000D02*
X17966000Y-2643000D01*
X15934000Y-6707000D02*
X15934000Y-2643000D01*
X31041000Y-6707000D02*
X31041000Y-2643000D01*
X29009000Y-6707000D02*
X29009000Y-2643000D01*
X34550000Y-17700000D02*
X32800000Y-17700000D01*
X32800000Y-16700000D02*
X34550000Y-16700000D01*
X33275000Y-33150000D02*
X31525000Y-33150000D01*
X31525000Y-32150000D02*
X33275000Y-32150000D01*
X22800000Y-31000000D02*
X24200000Y-31000000D01*
X24200000Y-32000000D02*
X22800000Y-32000000D01*
X22060000Y-27525000D02*
X23060000Y-28525000D01*
X22060000Y-21325000D02*
X22060000Y-27525000D01*
X23060000Y-28525000D02*
X35090000Y-28525000D01*
X35090000Y-28525000D02*
X35090000Y-21325000D01*
X35090000Y-21325000D02*
X22060000Y-21325000D01*
X22800000Y-32000000D02*
X24200000Y-32000000D01*
X24200000Y-33000000D02*
X22800000Y-33000000D01*
X22800000Y-16850000D02*
X24200000Y-16850000D01*
X24200000Y-17850000D02*
X22800000Y-17850000D01*
X26416000Y-26957000D02*
X26416000Y-22893000D01*
X24384000Y-26957000D02*
X24384000Y-22893000D01*
X22359000Y-22893000D02*
X22359000Y-26957000D01*
X24391000Y-22893000D02*
X24391000Y-26957000D01*
X45925000Y-41300158D02*
X45925000Y-39325000D01*
X45925000Y-43300000D02*
X45925000Y-42550000D01*
X45925000Y-45300000D02*
X45925000Y-44550000D01*
X45925000Y-39325000D02*
X47950000Y-39325000D01*
X49925000Y-39325000D02*
X49200000Y-39325000D01*
X45925000Y-48525000D02*
X47950000Y-48525000D01*
X49925000Y-48525000D02*
X49200000Y-48525000D01*
X51925000Y-42175000D02*
X49925000Y-42175000D01*
X51925000Y-43675000D02*
X51925000Y-42175000D01*
X49925000Y-43675000D02*
X51925000Y-43675000D01*
X45925000Y-46550000D02*
X45925000Y-48525000D01*
X49925000Y-48525000D02*
X49925000Y-39325000D01*
D10*
X48515887Y-61351000D02*
G75*
G03X48515887Y-61351000I-1200000J0D01*
G01*
D16*
X26616667Y-38116667D02*
X26616667Y-38683333D01*
X26650000Y-38750000D01*
X26683333Y-38783333D01*
X26750000Y-38816667D01*
X26883333Y-38816667D01*
X26950000Y-38783333D01*
X26983333Y-38750000D01*
X27016667Y-38683333D01*
X27016667Y-38116667D01*
X27650000Y-38116667D02*
X27516666Y-38116667D01*
X27450000Y-38150000D01*
X27416666Y-38183333D01*
X27350000Y-38283333D01*
X27316666Y-38416667D01*
X27316666Y-38683333D01*
X27350000Y-38750000D01*
X27383333Y-38783333D01*
X27450000Y-38816667D01*
X27583333Y-38816667D01*
X27650000Y-38783333D01*
X27683333Y-38750000D01*
X27716666Y-38683333D01*
X27716666Y-38516667D01*
X27683333Y-38450000D01*
X27650000Y-38416667D01*
X27583333Y-38383333D01*
X27450000Y-38383333D01*
X27383333Y-38416667D01*
X27350000Y-38450000D01*
X27316666Y-38516667D01*
X34966667Y-57983333D02*
X34966667Y-58316667D01*
X34733334Y-57616667D02*
X34966667Y-57983333D01*
X35200000Y-57616667D01*
X35800000Y-58316667D02*
X35400000Y-58316667D01*
X35600000Y-58316667D02*
X35600000Y-57616667D01*
X35533334Y-57716667D01*
X35466667Y-57783333D01*
X35400000Y-57816667D01*
X30066667Y-63733333D02*
X30633333Y-63733333D01*
X30700000Y-63700000D01*
X30733333Y-63666667D01*
X30766667Y-63600000D01*
X30766667Y-63466667D01*
X30733333Y-63400000D01*
X30700000Y-63366667D01*
X30633333Y-63333333D01*
X30066667Y-63333333D01*
X30766667Y-62633334D02*
X30766667Y-63033334D01*
X30766667Y-62833334D02*
X30066667Y-62833334D01*
X30166667Y-62900000D01*
X30233333Y-62966667D01*
X30266667Y-63033334D01*
X16866667Y-47891667D02*
X16866667Y-48458333D01*
X16900000Y-48525000D01*
X16933333Y-48558333D01*
X17000000Y-48591667D01*
X17133333Y-48591667D01*
X17200000Y-48558333D01*
X17233333Y-48525000D01*
X17266667Y-48458333D01*
X17266667Y-47891667D01*
X17566666Y-47958333D02*
X17600000Y-47925000D01*
X17666666Y-47891667D01*
X17833333Y-47891667D01*
X17900000Y-47925000D01*
X17933333Y-47958333D01*
X17966666Y-48025000D01*
X17966666Y-48091667D01*
X17933333Y-48191667D01*
X17533333Y-48591667D01*
X17966666Y-48591667D01*
X33041667Y-27508333D02*
X33608333Y-27508333D01*
X33675000Y-27475000D01*
X33708333Y-27441667D01*
X33741667Y-27375000D01*
X33741667Y-27241667D01*
X33708333Y-27175000D01*
X33675000Y-27141667D01*
X33608333Y-27108333D01*
X33041667Y-27108333D01*
X33041667Y-26441667D02*
X33041667Y-26775000D01*
X33375000Y-26808334D01*
X33341667Y-26775000D01*
X33308333Y-26708334D01*
X33308333Y-26541667D01*
X33341667Y-26475000D01*
X33375000Y-26441667D01*
X33441667Y-26408334D01*
X33608333Y-26408334D01*
X33675000Y-26441667D01*
X33708333Y-26475000D01*
X33741667Y-26541667D01*
X33741667Y-26708334D01*
X33708333Y-26775000D01*
X33675000Y-26808334D01*
X15690727Y-66811467D02*
X15690727Y-67311467D01*
X15657393Y-67411467D01*
X15590727Y-67478133D01*
X15490727Y-67511467D01*
X15424060Y-67511467D01*
X15990726Y-66878133D02*
X16024060Y-66844800D01*
X16090726Y-66811467D01*
X16257393Y-66811467D01*
X16324060Y-66844800D01*
X16357393Y-66878133D01*
X16390726Y-66944800D01*
X16390726Y-67011467D01*
X16357393Y-67111467D01*
X15957393Y-67511467D01*
X16390726Y-67511467D01*
X11616667Y-2841007D02*
X11616667Y-3341007D01*
X11583333Y-3441007D01*
X11516667Y-3507673D01*
X11416667Y-3541007D01*
X11350000Y-3541007D01*
X11883333Y-2841007D02*
X12350000Y-2841007D01*
X12050000Y-3541007D01*
X14966667Y-22291667D02*
X14966667Y-22858333D01*
X15000000Y-22925000D01*
X15033333Y-22958333D01*
X15100000Y-22991667D01*
X15233333Y-22991667D01*
X15300000Y-22958333D01*
X15333333Y-22925000D01*
X15366667Y-22858333D01*
X15366667Y-22291667D01*
X15800000Y-22591667D02*
X15733333Y-22558333D01*
X15700000Y-22525000D01*
X15666666Y-22458333D01*
X15666666Y-22425000D01*
X15700000Y-22358333D01*
X15733333Y-22325000D01*
X15800000Y-22291667D01*
X15933333Y-22291667D01*
X16000000Y-22325000D01*
X16033333Y-22358333D01*
X16066666Y-22425000D01*
X16066666Y-22458333D01*
X16033333Y-22525000D01*
X16000000Y-22558333D01*
X15933333Y-22591667D01*
X15800000Y-22591667D01*
X15733333Y-22625000D01*
X15700000Y-22658333D01*
X15666666Y-22725000D01*
X15666666Y-22858333D01*
X15700000Y-22925000D01*
X15733333Y-22958333D01*
X15800000Y-22991667D01*
X15933333Y-22991667D01*
X16000000Y-22958333D01*
X16033333Y-22925000D01*
X16066666Y-22858333D01*
X16066666Y-22725000D01*
X16033333Y-22658333D01*
X16000000Y-22625000D01*
X15933333Y-22591667D01*
X38366667Y-57666667D02*
X38366667Y-58166667D01*
X38333333Y-58266667D01*
X38266667Y-58333333D01*
X38166667Y-58366667D01*
X38100000Y-58366667D01*
X39066666Y-58366667D02*
X38666666Y-58366667D01*
X38866666Y-58366667D02*
X38866666Y-57666667D01*
X38800000Y-57766667D01*
X38733333Y-57833333D01*
X38666666Y-57866667D01*
D11*
X43418030Y-66736199D02*
X43418030Y-66126675D01*
X43418030Y-59116199D02*
X43418030Y-58506675D01*
X43722792Y-58811437D02*
X43113268Y-58811437D01*
D16*
X23966667Y-65241667D02*
X23966667Y-65741667D01*
X23933333Y-65841667D01*
X23866667Y-65908333D01*
X23766667Y-65941667D01*
X23700000Y-65941667D01*
X24600000Y-65475000D02*
X24600000Y-65941667D01*
X24433333Y-65208333D02*
X24266666Y-65708333D01*
X24700000Y-65708333D01*
X17868667Y-64930000D02*
X17168667Y-64930000D01*
X17168667Y-64763334D01*
X17202000Y-64663334D01*
X17268667Y-64596667D01*
X17335333Y-64563334D01*
X17468667Y-64530000D01*
X17568667Y-64530000D01*
X17702000Y-64563334D01*
X17768667Y-64596667D01*
X17835333Y-64663334D01*
X17868667Y-64763334D01*
X17868667Y-64930000D01*
X17868667Y-63863334D02*
X17868667Y-64263334D01*
X17868667Y-64063334D02*
X17168667Y-64063334D01*
X17268667Y-64130000D01*
X17335333Y-64196667D01*
X17368667Y-64263334D01*
X17402000Y-63263333D02*
X17868667Y-63263333D01*
X17135333Y-63430000D02*
X17635333Y-63596667D01*
X17635333Y-63163333D01*
X35900000Y-60991667D02*
X35900000Y-60291667D01*
X36066666Y-60291667D01*
X36166666Y-60325000D01*
X36233333Y-60391667D01*
X36266666Y-60458333D01*
X36300000Y-60591667D01*
X36300000Y-60691667D01*
X36266666Y-60825000D01*
X36233333Y-60891667D01*
X36166666Y-60958333D01*
X36066666Y-60991667D01*
X35900000Y-60991667D01*
X36966666Y-60991667D02*
X36566666Y-60991667D01*
X36766666Y-60991667D02*
X36766666Y-60291667D01*
X36700000Y-60391667D01*
X36633333Y-60458333D01*
X36566666Y-60491667D01*
X37233333Y-60358333D02*
X37266667Y-60325000D01*
X37333333Y-60291667D01*
X37500000Y-60291667D01*
X37566667Y-60325000D01*
X37600000Y-60358333D01*
X37633333Y-60425000D01*
X37633333Y-60491667D01*
X37600000Y-60591667D01*
X37200000Y-60991667D01*
X37633333Y-60991667D01*
X26800001Y-14916667D02*
X27200001Y-14916667D01*
X27000001Y-15616667D02*
X27000001Y-14916667D01*
X27666667Y-15250000D02*
X27766667Y-15283333D01*
X27800000Y-15316667D01*
X27833334Y-15383333D01*
X27833334Y-15483333D01*
X27800000Y-15550000D01*
X27766667Y-15583333D01*
X27700000Y-15616667D01*
X27433334Y-15616667D01*
X27433334Y-14916667D01*
X27666667Y-14916667D01*
X27733334Y-14950000D01*
X27766667Y-14983333D01*
X27800000Y-15050000D01*
X27800000Y-15116667D01*
X27766667Y-15183333D01*
X27733334Y-15216667D01*
X27666667Y-15250000D01*
X27433334Y-15250000D01*
X28133334Y-14916667D02*
X28133334Y-15483333D01*
X28166667Y-15550000D01*
X28200000Y-15583333D01*
X28266667Y-15616667D01*
X28400000Y-15616667D01*
X28466667Y-15583333D01*
X28500000Y-15550000D01*
X28533334Y-15483333D01*
X28533334Y-14916667D01*
X29233333Y-15616667D02*
X28833333Y-15616667D01*
X29033333Y-15616667D02*
X29033333Y-14916667D01*
X28966667Y-15016667D01*
X28900000Y-15083333D01*
X28833333Y-15116667D01*
X26650001Y-8291667D02*
X27050001Y-8291667D01*
X26850001Y-8991667D02*
X26850001Y-8291667D01*
X27516667Y-8625000D02*
X27616667Y-8658333D01*
X27650000Y-8691667D01*
X27683334Y-8758333D01*
X27683334Y-8858333D01*
X27650000Y-8925000D01*
X27616667Y-8958333D01*
X27550000Y-8991667D01*
X27283334Y-8991667D01*
X27283334Y-8291667D01*
X27516667Y-8291667D01*
X27583334Y-8325000D01*
X27616667Y-8358333D01*
X27650000Y-8425000D01*
X27650000Y-8491667D01*
X27616667Y-8558333D01*
X27583334Y-8591667D01*
X27516667Y-8625000D01*
X27283334Y-8625000D01*
X27983334Y-8291667D02*
X27983334Y-8858333D01*
X28016667Y-8925000D01*
X28050000Y-8958333D01*
X28116667Y-8991667D01*
X28250000Y-8991667D01*
X28316667Y-8958333D01*
X28350000Y-8925000D01*
X28383334Y-8858333D01*
X28383334Y-8291667D01*
X28683333Y-8358333D02*
X28716667Y-8325000D01*
X28783333Y-8291667D01*
X28950000Y-8291667D01*
X29016667Y-8325000D01*
X29050000Y-8358333D01*
X29083333Y-8425000D01*
X29083333Y-8491667D01*
X29050000Y-8591667D01*
X28650000Y-8991667D01*
X29083333Y-8991667D01*
X24333334Y-10216667D02*
X24733334Y-10216667D01*
X24533334Y-10916667D02*
X24533334Y-10216667D01*
X24866667Y-10216667D02*
X25100000Y-10916667D01*
X25333333Y-10216667D01*
X25533333Y-10883333D02*
X25633333Y-10916667D01*
X25800000Y-10916667D01*
X25866667Y-10883333D01*
X25900000Y-10850000D01*
X25933333Y-10783333D01*
X25933333Y-10716667D01*
X25900000Y-10650000D01*
X25866667Y-10616667D01*
X25800000Y-10583333D01*
X25666667Y-10550000D01*
X25600000Y-10516667D01*
X25566667Y-10483333D01*
X25533333Y-10416667D01*
X25533333Y-10350000D01*
X25566667Y-10283333D01*
X25600000Y-10250000D01*
X25666667Y-10216667D01*
X25833333Y-10216667D01*
X25933333Y-10250000D01*
X26600000Y-10916667D02*
X26200000Y-10916667D01*
X26400000Y-10916667D02*
X26400000Y-10216667D01*
X26333334Y-10316667D01*
X26266667Y-10383333D01*
X26200000Y-10416667D01*
X38383333Y-16225000D02*
X38316667Y-16191667D01*
X38216667Y-16191667D01*
X38116667Y-16225000D01*
X38050000Y-16291667D01*
X38016667Y-16358333D01*
X37983333Y-16491667D01*
X37983333Y-16591667D01*
X38016667Y-16725000D01*
X38050000Y-16791667D01*
X38116667Y-16858333D01*
X38216667Y-16891667D01*
X38283333Y-16891667D01*
X38383333Y-16858333D01*
X38416667Y-16825000D01*
X38416667Y-16591667D01*
X38283333Y-16591667D01*
X38716667Y-16891667D02*
X38716667Y-16191667D01*
X38883333Y-16191667D01*
X38983333Y-16225000D01*
X39050000Y-16291667D01*
X39083333Y-16358333D01*
X39116667Y-16491667D01*
X39116667Y-16591667D01*
X39083333Y-16725000D01*
X39050000Y-16791667D01*
X38983333Y-16858333D01*
X38883333Y-16891667D01*
X38716667Y-16891667D01*
X39316667Y-16191667D02*
X39716667Y-16191667D01*
X39516667Y-16891667D02*
X39516667Y-16191667D01*
X40316666Y-16891667D02*
X39916666Y-16891667D01*
X40116666Y-16891667D02*
X40116666Y-16191667D01*
X40050000Y-16291667D01*
X39983333Y-16358333D01*
X39916666Y-16391667D01*
X22525000Y-5641667D02*
X22491667Y-5708333D01*
X22491667Y-5808333D01*
X22525000Y-5908333D01*
X22591667Y-5975000D01*
X22658333Y-6008333D01*
X22791667Y-6041667D01*
X22891667Y-6041667D01*
X23025000Y-6008333D01*
X23091667Y-5975000D01*
X23158333Y-5908333D01*
X23191667Y-5808333D01*
X23191667Y-5741667D01*
X23158333Y-5641667D01*
X23125000Y-5608333D01*
X22891667Y-5608333D01*
X22891667Y-5741667D01*
X23191667Y-5308333D02*
X22491667Y-5308333D01*
X22491667Y-5141667D01*
X22525000Y-5041667D01*
X22591667Y-4975000D01*
X22658333Y-4941667D01*
X22791667Y-4908333D01*
X22891667Y-4908333D01*
X23025000Y-4941667D01*
X23091667Y-4975000D01*
X23158333Y-5041667D01*
X23191667Y-5141667D01*
X23191667Y-5308333D01*
X22491667Y-4708333D02*
X22491667Y-4308333D01*
X23191667Y-4508333D02*
X22491667Y-4508333D01*
X22558333Y-4108334D02*
X22525000Y-4075000D01*
X22491667Y-4008334D01*
X22491667Y-3841667D01*
X22525000Y-3775000D01*
X22558333Y-3741667D01*
X22625000Y-3708334D01*
X22691667Y-3708334D01*
X22791667Y-3741667D01*
X23191667Y-4141667D01*
X23191667Y-3708334D01*
X14800000Y-46741667D02*
X14566666Y-46408333D01*
X14400000Y-46741667D02*
X14400000Y-46041667D01*
X14666666Y-46041667D01*
X14733333Y-46075000D01*
X14766666Y-46108333D01*
X14800000Y-46175000D01*
X14800000Y-46275000D01*
X14766666Y-46341667D01*
X14733333Y-46375000D01*
X14666666Y-46408333D01*
X14400000Y-46408333D01*
X15066666Y-46108333D02*
X15100000Y-46075000D01*
X15166666Y-46041667D01*
X15333333Y-46041667D01*
X15400000Y-46075000D01*
X15433333Y-46108333D01*
X15466666Y-46175000D01*
X15466666Y-46241667D01*
X15433333Y-46341667D01*
X15033333Y-46741667D01*
X15466666Y-46741667D01*
X15900000Y-46041667D02*
X15966667Y-46041667D01*
X16033333Y-46075000D01*
X16066667Y-46108333D01*
X16100000Y-46175000D01*
X16133333Y-46308333D01*
X16133333Y-46475000D01*
X16100000Y-46608333D01*
X16066667Y-46675000D01*
X16033333Y-46708333D01*
X15966667Y-46741667D01*
X15900000Y-46741667D01*
X15833333Y-46708333D01*
X15800000Y-46675000D01*
X15766667Y-46608333D01*
X15733333Y-46475000D01*
X15733333Y-46308333D01*
X15766667Y-46175000D01*
X15800000Y-46108333D01*
X15833333Y-46075000D01*
X15900000Y-46041667D01*
X14800000Y-47741667D02*
X14566666Y-47408333D01*
X14400000Y-47741667D02*
X14400000Y-47041667D01*
X14666666Y-47041667D01*
X14733333Y-47075000D01*
X14766666Y-47108333D01*
X14800000Y-47175000D01*
X14800000Y-47275000D01*
X14766666Y-47341667D01*
X14733333Y-47375000D01*
X14666666Y-47408333D01*
X14400000Y-47408333D01*
X15066666Y-47108333D02*
X15100000Y-47075000D01*
X15166666Y-47041667D01*
X15333333Y-47041667D01*
X15400000Y-47075000D01*
X15433333Y-47108333D01*
X15466666Y-47175000D01*
X15466666Y-47241667D01*
X15433333Y-47341667D01*
X15033333Y-47741667D01*
X15466666Y-47741667D01*
X16133333Y-47741667D02*
X15733333Y-47741667D01*
X15933333Y-47741667D02*
X15933333Y-47041667D01*
X15866667Y-47141667D01*
X15800000Y-47208333D01*
X15733333Y-47241667D01*
X14800000Y-48741667D02*
X14566666Y-48408333D01*
X14400000Y-48741667D02*
X14400000Y-48041667D01*
X14666666Y-48041667D01*
X14733333Y-48075000D01*
X14766666Y-48108333D01*
X14800000Y-48175000D01*
X14800000Y-48275000D01*
X14766666Y-48341667D01*
X14733333Y-48375000D01*
X14666666Y-48408333D01*
X14400000Y-48408333D01*
X15066666Y-48108333D02*
X15100000Y-48075000D01*
X15166666Y-48041667D01*
X15333333Y-48041667D01*
X15400000Y-48075000D01*
X15433333Y-48108333D01*
X15466666Y-48175000D01*
X15466666Y-48241667D01*
X15433333Y-48341667D01*
X15033333Y-48741667D01*
X15466666Y-48741667D01*
X15733333Y-48108333D02*
X15766667Y-48075000D01*
X15833333Y-48041667D01*
X16000000Y-48041667D01*
X16066667Y-48075000D01*
X16100000Y-48108333D01*
X16133333Y-48175000D01*
X16133333Y-48241667D01*
X16100000Y-48341667D01*
X15700000Y-48741667D01*
X16133333Y-48741667D01*
X40766667Y-28766667D02*
X40766667Y-29266667D01*
X40733333Y-29366667D01*
X40666667Y-29433333D01*
X40566667Y-29466667D01*
X40500000Y-29466667D01*
X41400000Y-28766667D02*
X41266666Y-28766667D01*
X41200000Y-28800000D01*
X41166666Y-28833333D01*
X41100000Y-28933333D01*
X41066666Y-29066667D01*
X41066666Y-29333333D01*
X41100000Y-29400000D01*
X41133333Y-29433333D01*
X41200000Y-29466667D01*
X41333333Y-29466667D01*
X41400000Y-29433333D01*
X41433333Y-29400000D01*
X41466666Y-29333333D01*
X41466666Y-29166667D01*
X41433333Y-29100000D01*
X41400000Y-29066667D01*
X41333333Y-29033333D01*
X41200000Y-29033333D01*
X41133333Y-29066667D01*
X41100000Y-29100000D01*
X41066666Y-29166667D01*
X41016667Y-5666667D02*
X41016667Y-6166667D01*
X40983333Y-6266667D01*
X40916667Y-6333333D01*
X40816667Y-6366667D01*
X40750000Y-6366667D01*
X41683333Y-5666667D02*
X41350000Y-5666667D01*
X41316666Y-6000000D01*
X41350000Y-5966667D01*
X41416666Y-5933333D01*
X41583333Y-5933333D01*
X41650000Y-5966667D01*
X41683333Y-6000000D01*
X41716666Y-6066667D01*
X41716666Y-6233333D01*
X41683333Y-6300000D01*
X41650000Y-6333333D01*
X41583333Y-6366667D01*
X41416666Y-6366667D01*
X41350000Y-6333333D01*
X41316666Y-6300000D01*
X8516667Y-38166667D02*
X8516667Y-38666667D01*
X8483333Y-38766667D01*
X8416667Y-38833333D01*
X8316667Y-38866667D01*
X8250000Y-38866667D01*
X8783333Y-38166667D02*
X9216666Y-38166667D01*
X8983333Y-38433333D01*
X9083333Y-38433333D01*
X9150000Y-38466667D01*
X9183333Y-38500000D01*
X9216666Y-38566667D01*
X9216666Y-38733333D01*
X9183333Y-38800000D01*
X9150000Y-38833333D01*
X9083333Y-38866667D01*
X8883333Y-38866667D01*
X8816666Y-38833333D01*
X8783333Y-38800000D01*
X21250000Y-44666667D02*
X21016666Y-44333333D01*
X20850000Y-44666667D02*
X20850000Y-43966667D01*
X21116666Y-43966667D01*
X21183333Y-44000000D01*
X21216666Y-44033333D01*
X21250000Y-44100000D01*
X21250000Y-44200000D01*
X21216666Y-44266667D01*
X21183333Y-44300000D01*
X21116666Y-44333333D01*
X20850000Y-44333333D01*
X21916666Y-44666667D02*
X21516666Y-44666667D01*
X21716666Y-44666667D02*
X21716666Y-43966667D01*
X21650000Y-44066667D01*
X21583333Y-44133333D01*
X21516666Y-44166667D01*
X22250000Y-44666667D02*
X22383333Y-44666667D01*
X22450000Y-44633333D01*
X22483333Y-44600000D01*
X22550000Y-44500000D01*
X22583333Y-44366667D01*
X22583333Y-44100000D01*
X22550000Y-44033333D01*
X22516667Y-44000000D01*
X22450000Y-43966667D01*
X22316667Y-43966667D01*
X22250000Y-44000000D01*
X22216667Y-44033333D01*
X22183333Y-44100000D01*
X22183333Y-44266667D01*
X22216667Y-44333333D01*
X22250000Y-44366667D01*
X22316667Y-44400000D01*
X22450000Y-44400000D01*
X22516667Y-44366667D01*
X22550000Y-44333333D01*
X22583333Y-44266667D01*
X28150000Y-17466667D02*
X27916666Y-17133333D01*
X27750000Y-17466667D02*
X27750000Y-16766667D01*
X28016666Y-16766667D01*
X28083333Y-16800000D01*
X28116666Y-16833333D01*
X28150000Y-16900000D01*
X28150000Y-17000000D01*
X28116666Y-17066667D01*
X28083333Y-17100000D01*
X28016666Y-17133333D01*
X27750000Y-17133333D01*
X28816666Y-17466667D02*
X28416666Y-17466667D01*
X28616666Y-17466667D02*
X28616666Y-16766667D01*
X28550000Y-16866667D01*
X28483333Y-16933333D01*
X28416666Y-16966667D01*
X29050000Y-16766667D02*
X29516667Y-16766667D01*
X29216667Y-17466667D01*
X13716667Y-50675000D02*
X13383333Y-50908334D01*
X13716667Y-51075000D02*
X13016667Y-51075000D01*
X13016667Y-50808334D01*
X13050000Y-50741667D01*
X13083333Y-50708334D01*
X13150000Y-50675000D01*
X13250000Y-50675000D01*
X13316667Y-50708334D01*
X13350000Y-50741667D01*
X13383333Y-50808334D01*
X13383333Y-51075000D01*
X13716667Y-50341667D02*
X13716667Y-50208334D01*
X13683333Y-50141667D01*
X13650000Y-50108334D01*
X13550000Y-50041667D01*
X13416667Y-50008334D01*
X13150000Y-50008334D01*
X13083333Y-50041667D01*
X13050000Y-50075000D01*
X13016667Y-50141667D01*
X13016667Y-50275000D01*
X13050000Y-50341667D01*
X13083333Y-50375000D01*
X13150000Y-50408334D01*
X13316667Y-50408334D01*
X13383333Y-50375000D01*
X13416667Y-50341667D01*
X13450000Y-50275000D01*
X13450000Y-50141667D01*
X13416667Y-50075000D01*
X13383333Y-50041667D01*
X13316667Y-50008334D01*
X15908334Y-50141667D02*
X15675000Y-49808333D01*
X15508334Y-50141667D02*
X15508334Y-49441667D01*
X15775000Y-49441667D01*
X15841667Y-49475000D01*
X15875000Y-49508333D01*
X15908334Y-49575000D01*
X15908334Y-49675000D01*
X15875000Y-49741667D01*
X15841667Y-49775000D01*
X15775000Y-49808333D01*
X15508334Y-49808333D01*
X16141667Y-49441667D02*
X16608334Y-49441667D01*
X16308334Y-50141667D01*
X15508334Y-58816667D02*
X15275000Y-58483333D01*
X15108334Y-58816667D02*
X15108334Y-58116667D01*
X15375000Y-58116667D01*
X15441667Y-58150000D01*
X15475000Y-58183333D01*
X15508334Y-58250000D01*
X15508334Y-58350000D01*
X15475000Y-58416667D01*
X15441667Y-58450000D01*
X15375000Y-58483333D01*
X15108334Y-58483333D01*
X16108334Y-58350000D02*
X16108334Y-58816667D01*
X15941667Y-58083333D02*
X15775000Y-58583333D01*
X16208334Y-58583333D01*
X15508334Y-60616667D02*
X15275000Y-60283333D01*
X15108334Y-60616667D02*
X15108334Y-59916667D01*
X15375000Y-59916667D01*
X15441667Y-59950000D01*
X15475000Y-59983333D01*
X15508334Y-60050000D01*
X15508334Y-60150000D01*
X15475000Y-60216667D01*
X15441667Y-60250000D01*
X15375000Y-60283333D01*
X15108334Y-60283333D01*
X15741667Y-59916667D02*
X16175000Y-59916667D01*
X15941667Y-60183333D01*
X16041667Y-60183333D01*
X16108334Y-60216667D01*
X16141667Y-60250000D01*
X16175000Y-60316667D01*
X16175000Y-60483333D01*
X16141667Y-60550000D01*
X16108334Y-60583333D01*
X16041667Y-60616667D01*
X15841667Y-60616667D01*
X15775000Y-60583333D01*
X15741667Y-60550000D01*
X42020000Y-54356667D02*
X41786666Y-54023333D01*
X41620000Y-54356667D02*
X41620000Y-53656667D01*
X41886666Y-53656667D01*
X41953333Y-53690000D01*
X41986666Y-53723333D01*
X42020000Y-53790000D01*
X42020000Y-53890000D01*
X41986666Y-53956667D01*
X41953333Y-53990000D01*
X41886666Y-54023333D01*
X41620000Y-54023333D01*
X42686666Y-54356667D02*
X42286666Y-54356667D01*
X42486666Y-54356667D02*
X42486666Y-53656667D01*
X42420000Y-53756667D01*
X42353333Y-53823333D01*
X42286666Y-53856667D01*
X43120000Y-53656667D02*
X43186667Y-53656667D01*
X43253333Y-53690000D01*
X43286667Y-53723333D01*
X43320000Y-53790000D01*
X43353333Y-53923333D01*
X43353333Y-54090000D01*
X43320000Y-54223333D01*
X43286667Y-54290000D01*
X43253333Y-54323333D01*
X43186667Y-54356667D01*
X43120000Y-54356667D01*
X43053333Y-54323333D01*
X43020000Y-54290000D01*
X42986667Y-54223333D01*
X42953333Y-54090000D01*
X42953333Y-53923333D01*
X42986667Y-53790000D01*
X43020000Y-53723333D01*
X43053333Y-53690000D01*
X43120000Y-53656667D01*
X30800000Y-17466667D02*
X30566666Y-17133333D01*
X30400000Y-17466667D02*
X30400000Y-16766667D01*
X30666666Y-16766667D01*
X30733333Y-16800000D01*
X30766666Y-16833333D01*
X30800000Y-16900000D01*
X30800000Y-17000000D01*
X30766666Y-17066667D01*
X30733333Y-17100000D01*
X30666666Y-17133333D01*
X30400000Y-17133333D01*
X31466666Y-17466667D02*
X31066666Y-17466667D01*
X31266666Y-17466667D02*
X31266666Y-16766667D01*
X31200000Y-16866667D01*
X31133333Y-16933333D01*
X31066666Y-16966667D01*
X32066667Y-16766667D02*
X31933333Y-16766667D01*
X31866667Y-16800000D01*
X31833333Y-16833333D01*
X31766667Y-16933333D01*
X31733333Y-17066667D01*
X31733333Y-17333333D01*
X31766667Y-17400000D01*
X31800000Y-17433333D01*
X31866667Y-17466667D01*
X32000000Y-17466667D01*
X32066667Y-17433333D01*
X32100000Y-17400000D01*
X32133333Y-17333333D01*
X32133333Y-17166667D01*
X32100000Y-17100000D01*
X32066667Y-17066667D01*
X32000000Y-17033333D01*
X31866667Y-17033333D01*
X31800000Y-17066667D01*
X31766667Y-17100000D01*
X31733333Y-17166667D01*
X34300000Y-49541667D02*
X34066666Y-49208333D01*
X33900000Y-49541667D02*
X33900000Y-48841667D01*
X34166666Y-48841667D01*
X34233333Y-48875000D01*
X34266666Y-48908333D01*
X34300000Y-48975000D01*
X34300000Y-49075000D01*
X34266666Y-49141667D01*
X34233333Y-49175000D01*
X34166666Y-49208333D01*
X33900000Y-49208333D01*
X34966666Y-49541667D02*
X34566666Y-49541667D01*
X34766666Y-49541667D02*
X34766666Y-48841667D01*
X34700000Y-48941667D01*
X34633333Y-49008333D01*
X34566666Y-49041667D01*
X35566667Y-49075000D02*
X35566667Y-49541667D01*
X35400000Y-48808333D02*
X35233333Y-49308333D01*
X35666667Y-49308333D01*
X34300000Y-50491667D02*
X34066666Y-50158333D01*
X33900000Y-50491667D02*
X33900000Y-49791667D01*
X34166666Y-49791667D01*
X34233333Y-49825000D01*
X34266666Y-49858333D01*
X34300000Y-49925000D01*
X34300000Y-50025000D01*
X34266666Y-50091667D01*
X34233333Y-50125000D01*
X34166666Y-50158333D01*
X33900000Y-50158333D01*
X34966666Y-50491667D02*
X34566666Y-50491667D01*
X34766666Y-50491667D02*
X34766666Y-49791667D01*
X34700000Y-49891667D01*
X34633333Y-49958333D01*
X34566666Y-49991667D01*
X35200000Y-49791667D02*
X35633333Y-49791667D01*
X35400000Y-50058333D01*
X35500000Y-50058333D01*
X35566667Y-50091667D01*
X35600000Y-50125000D01*
X35633333Y-50191667D01*
X35633333Y-50358333D01*
X35600000Y-50425000D01*
X35566667Y-50458333D01*
X35500000Y-50491667D01*
X35300000Y-50491667D01*
X35233333Y-50458333D01*
X35200000Y-50425000D01*
X42020000Y-55306667D02*
X41786666Y-54973333D01*
X41620000Y-55306667D02*
X41620000Y-54606667D01*
X41886666Y-54606667D01*
X41953333Y-54640000D01*
X41986666Y-54673333D01*
X42020000Y-54740000D01*
X42020000Y-54840000D01*
X41986666Y-54906667D01*
X41953333Y-54940000D01*
X41886666Y-54973333D01*
X41620000Y-54973333D01*
X42686666Y-55306667D02*
X42286666Y-55306667D01*
X42486666Y-55306667D02*
X42486666Y-54606667D01*
X42420000Y-54706667D01*
X42353333Y-54773333D01*
X42286666Y-54806667D01*
X42953333Y-54673333D02*
X42986667Y-54640000D01*
X43053333Y-54606667D01*
X43220000Y-54606667D01*
X43286667Y-54640000D01*
X43320000Y-54673333D01*
X43353333Y-54740000D01*
X43353333Y-54806667D01*
X43320000Y-54906667D01*
X42920000Y-55306667D01*
X43353333Y-55306667D01*
X42020000Y-56256667D02*
X41786666Y-55923333D01*
X41620000Y-56256667D02*
X41620000Y-55556667D01*
X41886666Y-55556667D01*
X41953333Y-55590000D01*
X41986666Y-55623333D01*
X42020000Y-55690000D01*
X42020000Y-55790000D01*
X41986666Y-55856667D01*
X41953333Y-55890000D01*
X41886666Y-55923333D01*
X41620000Y-55923333D01*
X42686666Y-56256667D02*
X42286666Y-56256667D01*
X42486666Y-56256667D02*
X42486666Y-55556667D01*
X42420000Y-55656667D01*
X42353333Y-55723333D01*
X42286666Y-55756667D01*
X43353333Y-56256667D02*
X42953333Y-56256667D01*
X43153333Y-56256667D02*
X43153333Y-55556667D01*
X43086667Y-55656667D01*
X43020000Y-55723333D01*
X42953333Y-55756667D01*
X24941667Y-60966666D02*
X24608333Y-61200000D01*
X24941667Y-61366666D02*
X24241667Y-61366666D01*
X24241667Y-61100000D01*
X24275000Y-61033333D01*
X24308333Y-61000000D01*
X24375000Y-60966666D01*
X24475000Y-60966666D01*
X24541667Y-61000000D01*
X24575000Y-61033333D01*
X24608333Y-61100000D01*
X24608333Y-61366666D01*
X24541667Y-60566666D02*
X24508333Y-60633333D01*
X24475000Y-60666666D01*
X24408333Y-60700000D01*
X24375000Y-60700000D01*
X24308333Y-60666666D01*
X24275000Y-60633333D01*
X24241667Y-60566666D01*
X24241667Y-60433333D01*
X24275000Y-60366666D01*
X24308333Y-60333333D01*
X24375000Y-60300000D01*
X24408333Y-60300000D01*
X24475000Y-60333333D01*
X24508333Y-60366666D01*
X24541667Y-60433333D01*
X24541667Y-60566666D01*
X24575000Y-60633333D01*
X24608333Y-60666666D01*
X24675000Y-60700000D01*
X24808333Y-60700000D01*
X24875000Y-60666666D01*
X24908333Y-60633333D01*
X24941667Y-60566666D01*
X24941667Y-60433333D01*
X24908333Y-60366666D01*
X24875000Y-60333333D01*
X24808333Y-60300000D01*
X24675000Y-60300000D01*
X24608333Y-60333333D01*
X24575000Y-60366666D01*
X24541667Y-60433333D01*
X11616667Y-54241666D02*
X11283333Y-54475000D01*
X11616667Y-54641666D02*
X10916667Y-54641666D01*
X10916667Y-54375000D01*
X10950000Y-54308333D01*
X10983333Y-54275000D01*
X11050000Y-54241666D01*
X11150000Y-54241666D01*
X11216667Y-54275000D01*
X11250000Y-54308333D01*
X11283333Y-54375000D01*
X11283333Y-54641666D01*
X10983333Y-53975000D02*
X10950000Y-53941666D01*
X10916667Y-53875000D01*
X10916667Y-53708333D01*
X10950000Y-53641666D01*
X10983333Y-53608333D01*
X11050000Y-53575000D01*
X11116667Y-53575000D01*
X11216667Y-53608333D01*
X11616667Y-54008333D01*
X11616667Y-53575000D01*
X12933334Y-44616667D02*
X12700000Y-44283333D01*
X12533334Y-44616667D02*
X12533334Y-43916667D01*
X12800000Y-43916667D01*
X12866667Y-43950000D01*
X12900000Y-43983333D01*
X12933334Y-44050000D01*
X12933334Y-44150000D01*
X12900000Y-44216667D01*
X12866667Y-44250000D01*
X12800000Y-44283333D01*
X12533334Y-44283333D01*
X13566667Y-43916667D02*
X13233334Y-43916667D01*
X13200000Y-44250000D01*
X13233334Y-44216667D01*
X13300000Y-44183333D01*
X13466667Y-44183333D01*
X13533334Y-44216667D01*
X13566667Y-44250000D01*
X13600000Y-44316667D01*
X13600000Y-44483333D01*
X13566667Y-44550000D01*
X13533334Y-44583333D01*
X13466667Y-44616667D01*
X13300000Y-44616667D01*
X13233334Y-44583333D01*
X13200000Y-44550000D01*
X12966667Y-41966666D02*
X12633333Y-42200000D01*
X12966667Y-42366666D02*
X12266667Y-42366666D01*
X12266667Y-42100000D01*
X12300000Y-42033333D01*
X12333333Y-42000000D01*
X12400000Y-41966666D01*
X12500000Y-41966666D01*
X12566667Y-42000000D01*
X12600000Y-42033333D01*
X12633333Y-42100000D01*
X12633333Y-42366666D01*
X12266667Y-41366666D02*
X12266667Y-41500000D01*
X12300000Y-41566666D01*
X12333333Y-41600000D01*
X12433333Y-41666666D01*
X12566667Y-41700000D01*
X12833333Y-41700000D01*
X12900000Y-41666666D01*
X12933333Y-41633333D01*
X12966667Y-41566666D01*
X12966667Y-41433333D01*
X12933333Y-41366666D01*
X12900000Y-41333333D01*
X12833333Y-41300000D01*
X12666667Y-41300000D01*
X12600000Y-41333333D01*
X12566667Y-41366666D01*
X12533333Y-41433333D01*
X12533333Y-41566666D01*
X12566667Y-41633333D01*
X12600000Y-41666666D01*
X12666667Y-41700000D01*
X31800000Y-49175000D02*
X31766666Y-49208333D01*
X31666666Y-49241667D01*
X31600000Y-49241667D01*
X31500000Y-49208333D01*
X31433333Y-49141667D01*
X31400000Y-49075000D01*
X31366666Y-48941667D01*
X31366666Y-48841667D01*
X31400000Y-48708333D01*
X31433333Y-48641667D01*
X31500000Y-48575000D01*
X31600000Y-48541667D01*
X31666666Y-48541667D01*
X31766666Y-48575000D01*
X31800000Y-48608333D01*
X32066666Y-48608333D02*
X32100000Y-48575000D01*
X32166666Y-48541667D01*
X32333333Y-48541667D01*
X32400000Y-48575000D01*
X32433333Y-48608333D01*
X32466666Y-48675000D01*
X32466666Y-48741667D01*
X32433333Y-48841667D01*
X32033333Y-49241667D01*
X32466666Y-49241667D01*
X32800000Y-49241667D02*
X32933333Y-49241667D01*
X33000000Y-49208333D01*
X33033333Y-49175000D01*
X33100000Y-49075000D01*
X33133333Y-48941667D01*
X33133333Y-48675000D01*
X33100000Y-48608333D01*
X33066667Y-48575000D01*
X33000000Y-48541667D01*
X32866667Y-48541667D01*
X32800000Y-48575000D01*
X32766667Y-48608333D01*
X32733333Y-48675000D01*
X32733333Y-48841667D01*
X32766667Y-48908333D01*
X32800000Y-48941667D01*
X32866667Y-48975000D01*
X33000000Y-48975000D01*
X33066667Y-48941667D01*
X33100000Y-48908333D01*
X33133333Y-48841667D01*
X14600000Y-50675000D02*
X14633333Y-50708334D01*
X14666667Y-50808334D01*
X14666667Y-50875000D01*
X14633333Y-50975000D01*
X14566667Y-51041667D01*
X14500000Y-51075000D01*
X14366667Y-51108334D01*
X14266667Y-51108334D01*
X14133333Y-51075000D01*
X14066667Y-51041667D01*
X14000000Y-50975000D01*
X13966667Y-50875000D01*
X13966667Y-50808334D01*
X14000000Y-50708334D01*
X14033333Y-50675000D01*
X14033333Y-50408334D02*
X14000000Y-50375000D01*
X13966667Y-50308334D01*
X13966667Y-50141667D01*
X14000000Y-50075000D01*
X14033333Y-50041667D01*
X14100000Y-50008334D01*
X14166667Y-50008334D01*
X14266667Y-50041667D01*
X14666667Y-50441667D01*
X14666667Y-50008334D01*
X14266667Y-49608333D02*
X14233333Y-49675000D01*
X14200000Y-49708333D01*
X14133333Y-49741667D01*
X14100000Y-49741667D01*
X14033333Y-49708333D01*
X14000000Y-49675000D01*
X13966667Y-49608333D01*
X13966667Y-49475000D01*
X14000000Y-49408333D01*
X14033333Y-49375000D01*
X14100000Y-49341667D01*
X14133333Y-49341667D01*
X14200000Y-49375000D01*
X14233333Y-49408333D01*
X14266667Y-49475000D01*
X14266667Y-49608333D01*
X14300000Y-49675000D01*
X14333333Y-49708333D01*
X14400000Y-49741667D01*
X14533333Y-49741667D01*
X14600000Y-49708333D01*
X14633333Y-49675000D01*
X14666667Y-49608333D01*
X14666667Y-49475000D01*
X14633333Y-49408333D01*
X14600000Y-49375000D01*
X14533333Y-49341667D01*
X14400000Y-49341667D01*
X14333333Y-49375000D01*
X14300000Y-49408333D01*
X14266667Y-49475000D01*
X19000000Y-45950000D02*
X19033333Y-45983334D01*
X19066667Y-46083334D01*
X19066667Y-46150000D01*
X19033333Y-46250000D01*
X18966667Y-46316667D01*
X18900000Y-46350000D01*
X18766667Y-46383334D01*
X18666667Y-46383334D01*
X18533333Y-46350000D01*
X18466667Y-46316667D01*
X18400000Y-46250000D01*
X18366667Y-46150000D01*
X18366667Y-46083334D01*
X18400000Y-45983334D01*
X18433333Y-45950000D01*
X18433333Y-45683334D02*
X18400000Y-45650000D01*
X18366667Y-45583334D01*
X18366667Y-45416667D01*
X18400000Y-45350000D01*
X18433333Y-45316667D01*
X18500000Y-45283334D01*
X18566667Y-45283334D01*
X18666667Y-45316667D01*
X19066667Y-45716667D01*
X19066667Y-45283334D01*
X18366667Y-45050000D02*
X18366667Y-44583333D01*
X19066667Y-44883333D01*
X12325000Y-23825000D02*
X12358333Y-23858334D01*
X12391667Y-23958334D01*
X12391667Y-24025000D01*
X12358333Y-24125000D01*
X12291667Y-24191667D01*
X12225000Y-24225000D01*
X12091667Y-24258334D01*
X11991667Y-24258334D01*
X11858333Y-24225000D01*
X11791667Y-24191667D01*
X11725000Y-24125000D01*
X11691667Y-24025000D01*
X11691667Y-23958334D01*
X11725000Y-23858334D01*
X11758333Y-23825000D01*
X11758333Y-23558334D02*
X11725000Y-23525000D01*
X11691667Y-23458334D01*
X11691667Y-23291667D01*
X11725000Y-23225000D01*
X11758333Y-23191667D01*
X11825000Y-23158334D01*
X11891667Y-23158334D01*
X11991667Y-23191667D01*
X12391667Y-23591667D01*
X12391667Y-23158334D01*
X11758333Y-22891667D02*
X11725000Y-22858333D01*
X11691667Y-22791667D01*
X11691667Y-22625000D01*
X11725000Y-22558333D01*
X11758333Y-22525000D01*
X11825000Y-22491667D01*
X11891667Y-22491667D01*
X11991667Y-22525000D01*
X12391667Y-22925000D01*
X12391667Y-22491667D01*
X37200000Y-55941666D02*
X37233333Y-55975000D01*
X37266667Y-56075000D01*
X37266667Y-56141666D01*
X37233333Y-56241666D01*
X37166667Y-56308333D01*
X37100000Y-56341666D01*
X36966667Y-56375000D01*
X36866667Y-56375000D01*
X36733333Y-56341666D01*
X36666667Y-56308333D01*
X36600000Y-56241666D01*
X36566667Y-56141666D01*
X36566667Y-56075000D01*
X36600000Y-55975000D01*
X36633333Y-55941666D01*
X36566667Y-55708333D02*
X36566667Y-55241666D01*
X37266667Y-55541666D01*
X25000000Y-18600000D02*
X24966666Y-18633333D01*
X24866666Y-18666667D01*
X24800000Y-18666667D01*
X24700000Y-18633333D01*
X24633333Y-18566667D01*
X24600000Y-18500000D01*
X24566666Y-18366667D01*
X24566666Y-18266667D01*
X24600000Y-18133333D01*
X24633333Y-18066667D01*
X24700000Y-18000000D01*
X24800000Y-17966667D01*
X24866666Y-17966667D01*
X24966666Y-18000000D01*
X25000000Y-18033333D01*
X25666666Y-18666667D02*
X25266666Y-18666667D01*
X25466666Y-18666667D02*
X25466666Y-17966667D01*
X25400000Y-18066667D01*
X25333333Y-18133333D01*
X25266666Y-18166667D01*
X26066667Y-18266667D02*
X26000000Y-18233333D01*
X25966667Y-18200000D01*
X25933333Y-18133333D01*
X25933333Y-18100000D01*
X25966667Y-18033333D01*
X26000000Y-18000000D01*
X26066667Y-17966667D01*
X26200000Y-17966667D01*
X26266667Y-18000000D01*
X26300000Y-18033333D01*
X26333333Y-18100000D01*
X26333333Y-18133333D01*
X26300000Y-18200000D01*
X26266667Y-18233333D01*
X26200000Y-18266667D01*
X26066667Y-18266667D01*
X26000000Y-18300000D01*
X25966667Y-18333333D01*
X25933333Y-18400000D01*
X25933333Y-18533333D01*
X25966667Y-18600000D01*
X26000000Y-18633333D01*
X26066667Y-18666667D01*
X26200000Y-18666667D01*
X26266667Y-18633333D01*
X26300000Y-18600000D01*
X26333333Y-18533333D01*
X26333333Y-18400000D01*
X26300000Y-18333333D01*
X26266667Y-18300000D01*
X26200000Y-18266667D01*
X35450000Y-18725000D02*
X35416666Y-18758333D01*
X35316666Y-18791667D01*
X35250000Y-18791667D01*
X35150000Y-18758333D01*
X35083333Y-18691667D01*
X35050000Y-18625000D01*
X35016666Y-18491667D01*
X35016666Y-18391667D01*
X35050000Y-18258333D01*
X35083333Y-18191667D01*
X35150000Y-18125000D01*
X35250000Y-18091667D01*
X35316666Y-18091667D01*
X35416666Y-18125000D01*
X35450000Y-18158333D01*
X36116666Y-18791667D02*
X35716666Y-18791667D01*
X35916666Y-18791667D02*
X35916666Y-18091667D01*
X35850000Y-18191667D01*
X35783333Y-18258333D01*
X35716666Y-18291667D01*
X36450000Y-18791667D02*
X36583333Y-18791667D01*
X36650000Y-18758333D01*
X36683333Y-18725000D01*
X36750000Y-18625000D01*
X36783333Y-18491667D01*
X36783333Y-18225000D01*
X36750000Y-18158333D01*
X36716667Y-18125000D01*
X36650000Y-18091667D01*
X36516667Y-18091667D01*
X36450000Y-18125000D01*
X36416667Y-18158333D01*
X36383333Y-18225000D01*
X36383333Y-18391667D01*
X36416667Y-18458333D01*
X36450000Y-18491667D01*
X36516667Y-18525000D01*
X36650000Y-18525000D01*
X36716667Y-18491667D01*
X36750000Y-18458333D01*
X36783333Y-18391667D01*
X24025000Y-22300000D02*
X23991666Y-22333333D01*
X23891666Y-22366667D01*
X23825000Y-22366667D01*
X23725000Y-22333333D01*
X23658333Y-22266667D01*
X23625000Y-22200000D01*
X23591666Y-22066667D01*
X23591666Y-21966667D01*
X23625000Y-21833333D01*
X23658333Y-21766667D01*
X23725000Y-21700000D01*
X23825000Y-21666667D01*
X23891666Y-21666667D01*
X23991666Y-21700000D01*
X24025000Y-21733333D01*
X24691666Y-22366667D02*
X24291666Y-22366667D01*
X24491666Y-22366667D02*
X24491666Y-21666667D01*
X24425000Y-21766667D01*
X24358333Y-21833333D01*
X24291666Y-21866667D01*
X24925000Y-21666667D02*
X25391667Y-21666667D01*
X25091667Y-22366667D01*
X31800000Y-48225000D02*
X31766666Y-48258333D01*
X31666666Y-48291667D01*
X31600000Y-48291667D01*
X31500000Y-48258333D01*
X31433333Y-48191667D01*
X31400000Y-48125000D01*
X31366666Y-47991667D01*
X31366666Y-47891667D01*
X31400000Y-47758333D01*
X31433333Y-47691667D01*
X31500000Y-47625000D01*
X31600000Y-47591667D01*
X31666666Y-47591667D01*
X31766666Y-47625000D01*
X31800000Y-47658333D01*
X32466666Y-48291667D02*
X32066666Y-48291667D01*
X32266666Y-48291667D02*
X32266666Y-47591667D01*
X32200000Y-47691667D01*
X32133333Y-47758333D01*
X32066666Y-47791667D01*
X32733333Y-47658333D02*
X32766667Y-47625000D01*
X32833333Y-47591667D01*
X33000000Y-47591667D01*
X33066667Y-47625000D01*
X33100000Y-47658333D01*
X33133333Y-47725000D01*
X33133333Y-47791667D01*
X33100000Y-47891667D01*
X32700000Y-48291667D01*
X33133333Y-48291667D01*
X17150000Y-59575000D02*
X17116666Y-59608333D01*
X17016666Y-59641667D01*
X16950000Y-59641667D01*
X16850000Y-59608333D01*
X16783333Y-59541667D01*
X16750000Y-59475000D01*
X16716666Y-59341667D01*
X16716666Y-59241667D01*
X16750000Y-59108333D01*
X16783333Y-59041667D01*
X16850000Y-58975000D01*
X16950000Y-58941667D01*
X17016666Y-58941667D01*
X17116666Y-58975000D01*
X17150000Y-59008333D01*
X17816666Y-59641667D02*
X17416666Y-59641667D01*
X17616666Y-59641667D02*
X17616666Y-58941667D01*
X17550000Y-59041667D01*
X17483333Y-59108333D01*
X17416666Y-59141667D01*
X18483333Y-59641667D02*
X18083333Y-59641667D01*
X18283333Y-59641667D02*
X18283333Y-58941667D01*
X18216667Y-59041667D01*
X18150000Y-59108333D01*
X18083333Y-59141667D01*
X26075000Y-45466666D02*
X26108333Y-45500000D01*
X26141667Y-45600000D01*
X26141667Y-45666666D01*
X26108333Y-45766666D01*
X26041667Y-45833333D01*
X25975000Y-45866666D01*
X25841667Y-45900000D01*
X25741667Y-45900000D01*
X25608333Y-45866666D01*
X25541667Y-45833333D01*
X25475000Y-45766666D01*
X25441667Y-45666666D01*
X25441667Y-45600000D01*
X25475000Y-45500000D01*
X25508333Y-45466666D01*
X26141667Y-45133333D02*
X26141667Y-45000000D01*
X26108333Y-44933333D01*
X26075000Y-44900000D01*
X25975000Y-44833333D01*
X25841667Y-44800000D01*
X25575000Y-44800000D01*
X25508333Y-44833333D01*
X25475000Y-44866666D01*
X25441667Y-44933333D01*
X25441667Y-45066666D01*
X25475000Y-45133333D01*
X25508333Y-45166666D01*
X25575000Y-45200000D01*
X25741667Y-45200000D01*
X25808333Y-45166666D01*
X25841667Y-45133333D01*
X25875000Y-45066666D01*
X25875000Y-44933333D01*
X25841667Y-44866666D01*
X25808333Y-44833333D01*
X25741667Y-44800000D01*
X33708334Y-54250000D02*
X33675000Y-54283333D01*
X33575000Y-54316667D01*
X33508334Y-54316667D01*
X33408334Y-54283333D01*
X33341667Y-54216667D01*
X33308334Y-54150000D01*
X33275000Y-54016667D01*
X33275000Y-53916667D01*
X33308334Y-53783333D01*
X33341667Y-53716667D01*
X33408334Y-53650000D01*
X33508334Y-53616667D01*
X33575000Y-53616667D01*
X33675000Y-53650000D01*
X33708334Y-53683333D01*
X34108334Y-53916667D02*
X34041667Y-53883333D01*
X34008334Y-53850000D01*
X33975000Y-53783333D01*
X33975000Y-53750000D01*
X34008334Y-53683333D01*
X34041667Y-53650000D01*
X34108334Y-53616667D01*
X34241667Y-53616667D01*
X34308334Y-53650000D01*
X34341667Y-53683333D01*
X34375000Y-53750000D01*
X34375000Y-53783333D01*
X34341667Y-53850000D01*
X34308334Y-53883333D01*
X34241667Y-53916667D01*
X34108334Y-53916667D01*
X34041667Y-53950000D01*
X34008334Y-53983333D01*
X33975000Y-54050000D01*
X33975000Y-54183333D01*
X34008334Y-54250000D01*
X34041667Y-54283333D01*
X34108334Y-54316667D01*
X34241667Y-54316667D01*
X34308334Y-54283333D01*
X34341667Y-54250000D01*
X34375000Y-54183333D01*
X34375000Y-54050000D01*
X34341667Y-53983333D01*
X34308334Y-53950000D01*
X34241667Y-53916667D01*
X33058334Y-59425000D02*
X33025000Y-59458333D01*
X32925000Y-59491667D01*
X32858334Y-59491667D01*
X32758334Y-59458333D01*
X32691667Y-59391667D01*
X32658334Y-59325000D01*
X32625000Y-59191667D01*
X32625000Y-59091667D01*
X32658334Y-58958333D01*
X32691667Y-58891667D01*
X32758334Y-58825000D01*
X32858334Y-58791667D01*
X32925000Y-58791667D01*
X33025000Y-58825000D01*
X33058334Y-58858333D01*
X33658334Y-58791667D02*
X33525000Y-58791667D01*
X33458334Y-58825000D01*
X33425000Y-58858333D01*
X33358334Y-58958333D01*
X33325000Y-59091667D01*
X33325000Y-59358333D01*
X33358334Y-59425000D01*
X33391667Y-59458333D01*
X33458334Y-59491667D01*
X33591667Y-59491667D01*
X33658334Y-59458333D01*
X33691667Y-59425000D01*
X33725000Y-59358333D01*
X33725000Y-59191667D01*
X33691667Y-59125000D01*
X33658334Y-59091667D01*
X33591667Y-59058333D01*
X33458334Y-59058333D01*
X33391667Y-59091667D01*
X33358334Y-59125000D01*
X33325000Y-59191667D01*
X12325000Y-28500000D02*
X12358333Y-28533334D01*
X12391667Y-28633334D01*
X12391667Y-28700000D01*
X12358333Y-28800000D01*
X12291667Y-28866667D01*
X12225000Y-28900000D01*
X12091667Y-28933334D01*
X11991667Y-28933334D01*
X11858333Y-28900000D01*
X11791667Y-28866667D01*
X11725000Y-28800000D01*
X11691667Y-28700000D01*
X11691667Y-28633334D01*
X11725000Y-28533334D01*
X11758333Y-28500000D01*
X11758333Y-28233334D02*
X11725000Y-28200000D01*
X11691667Y-28133334D01*
X11691667Y-27966667D01*
X11725000Y-27900000D01*
X11758333Y-27866667D01*
X11825000Y-27833334D01*
X11891667Y-27833334D01*
X11991667Y-27866667D01*
X12391667Y-28266667D01*
X12391667Y-27833334D01*
X11691667Y-27233333D02*
X11691667Y-27366667D01*
X11725000Y-27433333D01*
X11758333Y-27466667D01*
X11858333Y-27533333D01*
X11991667Y-27566667D01*
X12258333Y-27566667D01*
X12325000Y-27533333D01*
X12358333Y-27500000D01*
X12391667Y-27433333D01*
X12391667Y-27300000D01*
X12358333Y-27233333D01*
X12325000Y-27200000D01*
X12258333Y-27166667D01*
X12091667Y-27166667D01*
X12025000Y-27200000D01*
X11991667Y-27233333D01*
X11958333Y-27300000D01*
X11958333Y-27433333D01*
X11991667Y-27500000D01*
X12025000Y-27533333D01*
X12091667Y-27566667D01*
X15125000Y-10825000D02*
X15091666Y-10858333D01*
X14991666Y-10891667D01*
X14925000Y-10891667D01*
X14825000Y-10858333D01*
X14758333Y-10791667D01*
X14725000Y-10725000D01*
X14691666Y-10591667D01*
X14691666Y-10491667D01*
X14725000Y-10358333D01*
X14758333Y-10291667D01*
X14825000Y-10225000D01*
X14925000Y-10191667D01*
X14991666Y-10191667D01*
X15091666Y-10225000D01*
X15125000Y-10258333D01*
X15391666Y-10258333D02*
X15425000Y-10225000D01*
X15491666Y-10191667D01*
X15658333Y-10191667D01*
X15725000Y-10225000D01*
X15758333Y-10258333D01*
X15791666Y-10325000D01*
X15791666Y-10391667D01*
X15758333Y-10491667D01*
X15358333Y-10891667D01*
X15791666Y-10891667D01*
X16425000Y-10191667D02*
X16091667Y-10191667D01*
X16058333Y-10525000D01*
X16091667Y-10491667D01*
X16158333Y-10458333D01*
X16325000Y-10458333D01*
X16391667Y-10491667D01*
X16425000Y-10525000D01*
X16458333Y-10591667D01*
X16458333Y-10758333D01*
X16425000Y-10825000D01*
X16391667Y-10858333D01*
X16325000Y-10891667D01*
X16158333Y-10891667D01*
X16091667Y-10858333D01*
X16058333Y-10825000D01*
X17825000Y-10825000D02*
X17791666Y-10858333D01*
X17691666Y-10891667D01*
X17625000Y-10891667D01*
X17525000Y-10858333D01*
X17458333Y-10791667D01*
X17425000Y-10725000D01*
X17391666Y-10591667D01*
X17391666Y-10491667D01*
X17425000Y-10358333D01*
X17458333Y-10291667D01*
X17525000Y-10225000D01*
X17625000Y-10191667D01*
X17691666Y-10191667D01*
X17791666Y-10225000D01*
X17825000Y-10258333D01*
X18091666Y-10258333D02*
X18125000Y-10225000D01*
X18191666Y-10191667D01*
X18358333Y-10191667D01*
X18425000Y-10225000D01*
X18458333Y-10258333D01*
X18491666Y-10325000D01*
X18491666Y-10391667D01*
X18458333Y-10491667D01*
X18058333Y-10891667D01*
X18491666Y-10891667D01*
X19091667Y-10425000D02*
X19091667Y-10891667D01*
X18925000Y-10158333D02*
X18758333Y-10658333D01*
X19191667Y-10658333D01*
X12325000Y-26162500D02*
X12358333Y-26195834D01*
X12391667Y-26295834D01*
X12391667Y-26362500D01*
X12358333Y-26462500D01*
X12291667Y-26529167D01*
X12225000Y-26562500D01*
X12091667Y-26595834D01*
X11991667Y-26595834D01*
X11858333Y-26562500D01*
X11791667Y-26529167D01*
X11725000Y-26462500D01*
X11691667Y-26362500D01*
X11691667Y-26295834D01*
X11725000Y-26195834D01*
X11758333Y-26162500D01*
X11758333Y-25895834D02*
X11725000Y-25862500D01*
X11691667Y-25795834D01*
X11691667Y-25629167D01*
X11725000Y-25562500D01*
X11758333Y-25529167D01*
X11825000Y-25495834D01*
X11891667Y-25495834D01*
X11991667Y-25529167D01*
X12391667Y-25929167D01*
X12391667Y-25495834D01*
X11691667Y-25262500D02*
X11691667Y-24829167D01*
X11958333Y-25062500D01*
X11958333Y-24962500D01*
X11991667Y-24895833D01*
X12025000Y-24862500D01*
X12091667Y-24829167D01*
X12258333Y-24829167D01*
X12325000Y-24862500D01*
X12358333Y-24895833D01*
X12391667Y-24962500D01*
X12391667Y-25162500D01*
X12358333Y-25229167D01*
X12325000Y-25262500D01*
X29883334Y-65150000D02*
X29850000Y-65183333D01*
X29750000Y-65216667D01*
X29683334Y-65216667D01*
X29583334Y-65183333D01*
X29516667Y-65116667D01*
X29483334Y-65050000D01*
X29450000Y-64916667D01*
X29450000Y-64816667D01*
X29483334Y-64683333D01*
X29516667Y-64616667D01*
X29583334Y-64550000D01*
X29683334Y-64516667D01*
X29750000Y-64516667D01*
X29850000Y-64550000D01*
X29883334Y-64583333D01*
X30116667Y-64516667D02*
X30550000Y-64516667D01*
X30316667Y-64783333D01*
X30416667Y-64783333D01*
X30483334Y-64816667D01*
X30516667Y-64850000D01*
X30550000Y-64916667D01*
X30550000Y-65083333D01*
X30516667Y-65150000D01*
X30483334Y-65183333D01*
X30416667Y-65216667D01*
X30216667Y-65216667D01*
X30150000Y-65183333D01*
X30116667Y-65150000D01*
X29200000Y-61300000D02*
X29233333Y-61333334D01*
X29266667Y-61433334D01*
X29266667Y-61500000D01*
X29233333Y-61600000D01*
X29166667Y-61666667D01*
X29100000Y-61700000D01*
X28966667Y-61733334D01*
X28866667Y-61733334D01*
X28733333Y-61700000D01*
X28666667Y-61666667D01*
X28600000Y-61600000D01*
X28566667Y-61500000D01*
X28566667Y-61433334D01*
X28600000Y-61333334D01*
X28633333Y-61300000D01*
X29266667Y-60633334D02*
X29266667Y-61033334D01*
X29266667Y-60833334D02*
X28566667Y-60833334D01*
X28666667Y-60900000D01*
X28733333Y-60966667D01*
X28766667Y-61033334D01*
X28566667Y-60200000D02*
X28566667Y-60133333D01*
X28600000Y-60066667D01*
X28633333Y-60033333D01*
X28700000Y-60000000D01*
X28833333Y-59966667D01*
X29000000Y-59966667D01*
X29133333Y-60000000D01*
X29200000Y-60033333D01*
X29233333Y-60066667D01*
X29266667Y-60133333D01*
X29266667Y-60200000D01*
X29233333Y-60266667D01*
X29200000Y-60300000D01*
X29133333Y-60333333D01*
X29000000Y-60366667D01*
X28833333Y-60366667D01*
X28700000Y-60333333D01*
X28633333Y-60300000D01*
X28600000Y-60266667D01*
X28566667Y-60200000D01*
X29800000Y-31750000D02*
X29766666Y-31783333D01*
X29666666Y-31816667D01*
X29600000Y-31816667D01*
X29500000Y-31783333D01*
X29433333Y-31716667D01*
X29400000Y-31650000D01*
X29366666Y-31516667D01*
X29366666Y-31416667D01*
X29400000Y-31283333D01*
X29433333Y-31216667D01*
X29500000Y-31150000D01*
X29600000Y-31116667D01*
X29666666Y-31116667D01*
X29766666Y-31150000D01*
X29800000Y-31183333D01*
X30466666Y-31816667D02*
X30066666Y-31816667D01*
X30266666Y-31816667D02*
X30266666Y-31116667D01*
X30200000Y-31216667D01*
X30133333Y-31283333D01*
X30066666Y-31316667D01*
X31066667Y-31116667D02*
X30933333Y-31116667D01*
X30866667Y-31150000D01*
X30833333Y-31183333D01*
X30766667Y-31283333D01*
X30733333Y-31416667D01*
X30733333Y-31683333D01*
X30766667Y-31750000D01*
X30800000Y-31783333D01*
X30866667Y-31816667D01*
X31000000Y-31816667D01*
X31066667Y-31783333D01*
X31100000Y-31750000D01*
X31133333Y-31683333D01*
X31133333Y-31516667D01*
X31100000Y-31450000D01*
X31066667Y-31416667D01*
X31000000Y-31383333D01*
X30866667Y-31383333D01*
X30800000Y-31416667D01*
X30766667Y-31450000D01*
X30733333Y-31516667D01*
X37458334Y-63300000D02*
X37425000Y-63333333D01*
X37325000Y-63366667D01*
X37258334Y-63366667D01*
X37158334Y-63333333D01*
X37091667Y-63266667D01*
X37058334Y-63200000D01*
X37025000Y-63066667D01*
X37025000Y-62966667D01*
X37058334Y-62833333D01*
X37091667Y-62766667D01*
X37158334Y-62700000D01*
X37258334Y-62666667D01*
X37325000Y-62666667D01*
X37425000Y-62700000D01*
X37458334Y-62733333D01*
X37725000Y-62733333D02*
X37758334Y-62700000D01*
X37825000Y-62666667D01*
X37991667Y-62666667D01*
X38058334Y-62700000D01*
X38091667Y-62733333D01*
X38125000Y-62800000D01*
X38125000Y-62866667D01*
X38091667Y-62966667D01*
X37691667Y-63366667D01*
X38125000Y-63366667D01*
X37458334Y-64350000D02*
X37425000Y-64383333D01*
X37325000Y-64416667D01*
X37258334Y-64416667D01*
X37158334Y-64383333D01*
X37091667Y-64316667D01*
X37058334Y-64250000D01*
X37025000Y-64116667D01*
X37025000Y-64016667D01*
X37058334Y-63883333D01*
X37091667Y-63816667D01*
X37158334Y-63750000D01*
X37258334Y-63716667D01*
X37325000Y-63716667D01*
X37425000Y-63750000D01*
X37458334Y-63783333D01*
X38125000Y-64416667D02*
X37725000Y-64416667D01*
X37925000Y-64416667D02*
X37925000Y-63716667D01*
X37858334Y-63816667D01*
X37791667Y-63883333D01*
X37725000Y-63916667D01*
X37458334Y-66050000D02*
X37425000Y-66083333D01*
X37325000Y-66116667D01*
X37258334Y-66116667D01*
X37158334Y-66083333D01*
X37091667Y-66016667D01*
X37058334Y-65950000D01*
X37025000Y-65816667D01*
X37025000Y-65716667D01*
X37058334Y-65583333D01*
X37091667Y-65516667D01*
X37158334Y-65450000D01*
X37258334Y-65416667D01*
X37325000Y-65416667D01*
X37425000Y-65450000D01*
X37458334Y-65483333D01*
X38058334Y-65650000D02*
X38058334Y-66116667D01*
X37891667Y-65383333D02*
X37725000Y-65883333D01*
X38158334Y-65883333D01*
X15108334Y-61516667D02*
X15108334Y-60816667D01*
X15275000Y-60816667D01*
X15375000Y-60850000D01*
X15441667Y-60916667D01*
X15475000Y-60983333D01*
X15508334Y-61116667D01*
X15508334Y-61216667D01*
X15475000Y-61350000D01*
X15441667Y-61416667D01*
X15375000Y-61483333D01*
X15275000Y-61516667D01*
X15108334Y-61516667D01*
X16175000Y-61516667D02*
X15775000Y-61516667D01*
X15975000Y-61516667D02*
X15975000Y-60816667D01*
X15908334Y-60916667D01*
X15841667Y-60983333D01*
X15775000Y-61016667D01*
X15108334Y-59716667D02*
X15108334Y-59016667D01*
X15275000Y-59016667D01*
X15375000Y-59050000D01*
X15441667Y-59116667D01*
X15475000Y-59183333D01*
X15508334Y-59316667D01*
X15508334Y-59416667D01*
X15475000Y-59550000D01*
X15441667Y-59616667D01*
X15375000Y-59683333D01*
X15275000Y-59716667D01*
X15108334Y-59716667D01*
X15775000Y-59083333D02*
X15808334Y-59050000D01*
X15875000Y-59016667D01*
X16041667Y-59016667D01*
X16108334Y-59050000D01*
X16141667Y-59083333D01*
X16175000Y-59150000D01*
X16175000Y-59216667D01*
X16141667Y-59316667D01*
X15741667Y-59716667D01*
X16175000Y-59716667D01*
X10266667Y-42316666D02*
X9566667Y-42316666D01*
X9566667Y-42150000D01*
X9600000Y-42050000D01*
X9666667Y-41983333D01*
X9733333Y-41950000D01*
X9866667Y-41916666D01*
X9966667Y-41916666D01*
X10100000Y-41950000D01*
X10166667Y-41983333D01*
X10233333Y-42050000D01*
X10266667Y-42150000D01*
X10266667Y-42316666D01*
X9566667Y-41683333D02*
X9566667Y-41250000D01*
X9833333Y-41483333D01*
X9833333Y-41383333D01*
X9866667Y-41316666D01*
X9900000Y-41283333D01*
X9966667Y-41250000D01*
X10133333Y-41250000D01*
X10200000Y-41283333D01*
X10233333Y-41316666D01*
X10266667Y-41383333D01*
X10266667Y-41583333D01*
X10233333Y-41650000D01*
X10200000Y-41683333D01*
X10266667Y-45316666D02*
X9566667Y-45316666D01*
X9566667Y-45150000D01*
X9600000Y-45050000D01*
X9666667Y-44983333D01*
X9733333Y-44950000D01*
X9866667Y-44916666D01*
X9966667Y-44916666D01*
X10100000Y-44950000D01*
X10166667Y-44983333D01*
X10233333Y-45050000D01*
X10266667Y-45150000D01*
X10266667Y-45316666D01*
X9800000Y-44316666D02*
X10266667Y-44316666D01*
X9533333Y-44483333D02*
X10033333Y-44650000D01*
X10033333Y-44216666D01*
X10266667Y-49316666D02*
X9566667Y-49316666D01*
X9566667Y-49150000D01*
X9600000Y-49050000D01*
X9666667Y-48983333D01*
X9733333Y-48950000D01*
X9866667Y-48916666D01*
X9966667Y-48916666D01*
X10100000Y-48950000D01*
X10166667Y-48983333D01*
X10233333Y-49050000D01*
X10266667Y-49150000D01*
X10266667Y-49316666D01*
X9566667Y-48283333D02*
X9566667Y-48616666D01*
X9900000Y-48650000D01*
X9866667Y-48616666D01*
X9833333Y-48550000D01*
X9833333Y-48383333D01*
X9866667Y-48316666D01*
X9900000Y-48283333D01*
X9966667Y-48250000D01*
X10133333Y-48250000D01*
X10200000Y-48283333D01*
X10233333Y-48316666D01*
X10266667Y-48383333D01*
X10266667Y-48550000D01*
X10233333Y-48616666D01*
X10200000Y-48650000D01*
X46733334Y-50466667D02*
X46733334Y-49766667D01*
X46900000Y-49766667D01*
X47000000Y-49800000D01*
X47066667Y-49866667D01*
X47100000Y-49933333D01*
X47133334Y-50066667D01*
X47133334Y-50166667D01*
X47100000Y-50300000D01*
X47066667Y-50366667D01*
X47000000Y-50433333D01*
X46900000Y-50466667D01*
X46733334Y-50466667D01*
X47733334Y-49766667D02*
X47600000Y-49766667D01*
X47533334Y-49800000D01*
X47500000Y-49833333D01*
X47433334Y-49933333D01*
X47400000Y-50066667D01*
X47400000Y-50333333D01*
X47433334Y-50400000D01*
X47466667Y-50433333D01*
X47533334Y-50466667D01*
X47666667Y-50466667D01*
X47733334Y-50433333D01*
X47766667Y-50400000D01*
X47800000Y-50333333D01*
X47800000Y-50166667D01*
X47766667Y-50100000D01*
X47733334Y-50066667D01*
X47666667Y-50033333D01*
X47533334Y-50033333D01*
X47466667Y-50066667D01*
X47433334Y-50100000D01*
X47400000Y-50166667D01*
X36733334Y-50466667D02*
X36733334Y-49766667D01*
X36900000Y-49766667D01*
X37000000Y-49800000D01*
X37066667Y-49866667D01*
X37100000Y-49933333D01*
X37133334Y-50066667D01*
X37133334Y-50166667D01*
X37100000Y-50300000D01*
X37066667Y-50366667D01*
X37000000Y-50433333D01*
X36900000Y-50466667D01*
X36733334Y-50466667D01*
X37366667Y-49766667D02*
X37833334Y-49766667D01*
X37533334Y-50466667D01*
X41733334Y-50466667D02*
X41733334Y-49766667D01*
X41900000Y-49766667D01*
X42000000Y-49800000D01*
X42066667Y-49866667D01*
X42100000Y-49933333D01*
X42133334Y-50066667D01*
X42133334Y-50166667D01*
X42100000Y-50300000D01*
X42066667Y-50366667D01*
X42000000Y-50433333D01*
X41900000Y-50466667D01*
X41733334Y-50466667D01*
X42533334Y-50066667D02*
X42466667Y-50033333D01*
X42433334Y-50000000D01*
X42400000Y-49933333D01*
X42400000Y-49900000D01*
X42433334Y-49833333D01*
X42466667Y-49800000D01*
X42533334Y-49766667D01*
X42666667Y-49766667D01*
X42733334Y-49800000D01*
X42766667Y-49833333D01*
X42800000Y-49900000D01*
X42800000Y-49933333D01*
X42766667Y-50000000D01*
X42733334Y-50033333D01*
X42666667Y-50066667D01*
X42533334Y-50066667D01*
X42466667Y-50100000D01*
X42433334Y-50133333D01*
X42400000Y-50200000D01*
X42400000Y-50333333D01*
X42433334Y-50400000D01*
X42466667Y-50433333D01*
X42533334Y-50466667D01*
X42666667Y-50466667D01*
X42733334Y-50433333D01*
X42766667Y-50400000D01*
X42800000Y-50333333D01*
X42800000Y-50200000D01*
X42766667Y-50133333D01*
X42733334Y-50100000D01*
X42666667Y-50066667D01*
X39666667Y-24316666D02*
X38966667Y-24316666D01*
X38966667Y-24150000D01*
X39000000Y-24050000D01*
X39066667Y-23983333D01*
X39133333Y-23950000D01*
X39266667Y-23916666D01*
X39366667Y-23916666D01*
X39500000Y-23950000D01*
X39566667Y-23983333D01*
X39633333Y-24050000D01*
X39666667Y-24150000D01*
X39666667Y-24316666D01*
X39666667Y-23583333D02*
X39666667Y-23450000D01*
X39633333Y-23383333D01*
X39600000Y-23350000D01*
X39500000Y-23283333D01*
X39366667Y-23250000D01*
X39100000Y-23250000D01*
X39033333Y-23283333D01*
X39000000Y-23316666D01*
X38966667Y-23383333D01*
X38966667Y-23516666D01*
X39000000Y-23583333D01*
X39033333Y-23616666D01*
X39100000Y-23650000D01*
X39266667Y-23650000D01*
X39333333Y-23616666D01*
X39366667Y-23583333D01*
X39400000Y-23516666D01*
X39400000Y-23383333D01*
X39366667Y-23316666D01*
X39333333Y-23283333D01*
X39266667Y-23250000D01*
X12741667Y-51075000D02*
X12041667Y-51075000D01*
X12041667Y-50908334D01*
X12075000Y-50808334D01*
X12141667Y-50741667D01*
X12208333Y-50708334D01*
X12341667Y-50675000D01*
X12441667Y-50675000D01*
X12575000Y-50708334D01*
X12641667Y-50741667D01*
X12708333Y-50808334D01*
X12741667Y-50908334D01*
X12741667Y-51075000D01*
X12741667Y-50008334D02*
X12741667Y-50408334D01*
X12741667Y-50208334D02*
X12041667Y-50208334D01*
X12141667Y-50275000D01*
X12208333Y-50341667D01*
X12241667Y-50408334D01*
X12041667Y-49375000D02*
X12041667Y-49708333D01*
X12375000Y-49741667D01*
X12341667Y-49708333D01*
X12308333Y-49641667D01*
X12308333Y-49475000D01*
X12341667Y-49408333D01*
X12375000Y-49375000D01*
X12441667Y-49341667D01*
X12608333Y-49341667D01*
X12675000Y-49375000D01*
X12708333Y-49408333D01*
X12741667Y-49475000D01*
X12741667Y-49641667D01*
X12708333Y-49708333D01*
X12675000Y-49741667D01*
X15199000Y-7791666D02*
X15232333Y-7825000D01*
X15265667Y-7925000D01*
X15265667Y-7991666D01*
X15232333Y-8091666D01*
X15165667Y-8158333D01*
X15099000Y-8191666D01*
X14965667Y-8225000D01*
X14865667Y-8225000D01*
X14732333Y-8191666D01*
X14665667Y-8158333D01*
X14599000Y-8091666D01*
X14565667Y-7991666D01*
X14565667Y-7925000D01*
X14599000Y-7825000D01*
X14632333Y-7791666D01*
X14565667Y-7158333D02*
X14565667Y-7491666D01*
X14899000Y-7525000D01*
X14865667Y-7491666D01*
X14832333Y-7425000D01*
X14832333Y-7258333D01*
X14865667Y-7191666D01*
X14899000Y-7158333D01*
X14965667Y-7125000D01*
X15132333Y-7125000D01*
X15199000Y-7158333D01*
X15232333Y-7191666D01*
X15265667Y-7258333D01*
X15265667Y-7425000D01*
X15232333Y-7491666D01*
X15199000Y-7525000D01*
X35800000Y-5125000D02*
X35833333Y-5158334D01*
X35866667Y-5258334D01*
X35866667Y-5325000D01*
X35833333Y-5425000D01*
X35766667Y-5491667D01*
X35700000Y-5525000D01*
X35566667Y-5558334D01*
X35466667Y-5558334D01*
X35333333Y-5525000D01*
X35266667Y-5491667D01*
X35200000Y-5425000D01*
X35166667Y-5325000D01*
X35166667Y-5258334D01*
X35200000Y-5158334D01*
X35233333Y-5125000D01*
X35233333Y-4858334D02*
X35200000Y-4825000D01*
X35166667Y-4758334D01*
X35166667Y-4591667D01*
X35200000Y-4525000D01*
X35233333Y-4491667D01*
X35300000Y-4458334D01*
X35366667Y-4458334D01*
X35466667Y-4491667D01*
X35866667Y-4891667D01*
X35866667Y-4458334D01*
X35866667Y-3791667D02*
X35866667Y-4191667D01*
X35866667Y-3991667D02*
X35166667Y-3991667D01*
X35266667Y-4058333D01*
X35333333Y-4125000D01*
X35366667Y-4191667D01*
X17265667Y-7791666D02*
X16932333Y-8025000D01*
X17265667Y-8191666D02*
X16565667Y-8191666D01*
X16565667Y-7925000D01*
X16599000Y-7858333D01*
X16632333Y-7825000D01*
X16699000Y-7791666D01*
X16799000Y-7791666D01*
X16865667Y-7825000D01*
X16899000Y-7858333D01*
X16932333Y-7925000D01*
X16932333Y-8191666D01*
X17265667Y-7125000D02*
X17265667Y-7525000D01*
X17265667Y-7325000D02*
X16565667Y-7325000D01*
X16665667Y-7391666D01*
X16732333Y-7458333D01*
X16765667Y-7525000D01*
X34790667Y-5125000D02*
X34457333Y-5358334D01*
X34790667Y-5525000D02*
X34090667Y-5525000D01*
X34090667Y-5258334D01*
X34124000Y-5191667D01*
X34157333Y-5158334D01*
X34224000Y-5125000D01*
X34324000Y-5125000D01*
X34390667Y-5158334D01*
X34424000Y-5191667D01*
X34457333Y-5258334D01*
X34457333Y-5525000D01*
X34790667Y-4458334D02*
X34790667Y-4858334D01*
X34790667Y-4658334D02*
X34090667Y-4658334D01*
X34190667Y-4725000D01*
X34257333Y-4791667D01*
X34290667Y-4858334D01*
X34390667Y-4058333D02*
X34357333Y-4125000D01*
X34324000Y-4158333D01*
X34257333Y-4191667D01*
X34224000Y-4191667D01*
X34157333Y-4158333D01*
X34124000Y-4125000D01*
X34090667Y-4058333D01*
X34090667Y-3925000D01*
X34124000Y-3858333D01*
X34157333Y-3825000D01*
X34224000Y-3791667D01*
X34257333Y-3791667D01*
X34324000Y-3825000D01*
X34357333Y-3858333D01*
X34390667Y-3925000D01*
X34390667Y-4058333D01*
X34424000Y-4125000D01*
X34457333Y-4158333D01*
X34524000Y-4191667D01*
X34657333Y-4191667D01*
X34724000Y-4158333D01*
X34757333Y-4125000D01*
X34790667Y-4058333D01*
X34790667Y-3925000D01*
X34757333Y-3858333D01*
X34724000Y-3825000D01*
X34657333Y-3791667D01*
X34524000Y-3791667D01*
X34457333Y-3825000D01*
X34424000Y-3858333D01*
X34390667Y-3925000D01*
X35450000Y-17575000D02*
X35416666Y-17608333D01*
X35316666Y-17641667D01*
X35250000Y-17641667D01*
X35150000Y-17608333D01*
X35083333Y-17541667D01*
X35050000Y-17475000D01*
X35016666Y-17341667D01*
X35016666Y-17241667D01*
X35050000Y-17108333D01*
X35083333Y-17041667D01*
X35150000Y-16975000D01*
X35250000Y-16941667D01*
X35316666Y-16941667D01*
X35416666Y-16975000D01*
X35450000Y-17008333D01*
X35683333Y-16941667D02*
X36116666Y-16941667D01*
X35883333Y-17208333D01*
X35983333Y-17208333D01*
X36050000Y-17241667D01*
X36083333Y-17275000D01*
X36116666Y-17341667D01*
X36116666Y-17508333D01*
X36083333Y-17575000D01*
X36050000Y-17608333D01*
X35983333Y-17641667D01*
X35783333Y-17641667D01*
X35716666Y-17608333D01*
X35683333Y-17575000D01*
X36550000Y-16941667D02*
X36616667Y-16941667D01*
X36683333Y-16975000D01*
X36716667Y-17008333D01*
X36750000Y-17075000D01*
X36783333Y-17208333D01*
X36783333Y-17375000D01*
X36750000Y-17508333D01*
X36716667Y-17575000D01*
X36683333Y-17608333D01*
X36616667Y-17641667D01*
X36550000Y-17641667D01*
X36483333Y-17608333D01*
X36450000Y-17575000D01*
X36416667Y-17508333D01*
X36383333Y-17375000D01*
X36383333Y-17208333D01*
X36416667Y-17075000D01*
X36450000Y-17008333D01*
X36483333Y-16975000D01*
X36550000Y-16941667D01*
X29800000Y-32925000D02*
X29766666Y-32958333D01*
X29666666Y-32991667D01*
X29600000Y-32991667D01*
X29500000Y-32958333D01*
X29433333Y-32891667D01*
X29400000Y-32825000D01*
X29366666Y-32691667D01*
X29366666Y-32591667D01*
X29400000Y-32458333D01*
X29433333Y-32391667D01*
X29500000Y-32325000D01*
X29600000Y-32291667D01*
X29666666Y-32291667D01*
X29766666Y-32325000D01*
X29800000Y-32358333D01*
X30466666Y-32991667D02*
X30066666Y-32991667D01*
X30266666Y-32991667D02*
X30266666Y-32291667D01*
X30200000Y-32391667D01*
X30133333Y-32458333D01*
X30066666Y-32491667D01*
X31066667Y-32525000D02*
X31066667Y-32991667D01*
X30900000Y-32258333D02*
X30733333Y-32758333D01*
X31166667Y-32758333D01*
X24975000Y-31750000D02*
X24941666Y-31783333D01*
X24841666Y-31816667D01*
X24775000Y-31816667D01*
X24675000Y-31783333D01*
X24608333Y-31716667D01*
X24575000Y-31650000D01*
X24541666Y-31516667D01*
X24541666Y-31416667D01*
X24575000Y-31283333D01*
X24608333Y-31216667D01*
X24675000Y-31150000D01*
X24775000Y-31116667D01*
X24841666Y-31116667D01*
X24941666Y-31150000D01*
X24975000Y-31183333D01*
X25641666Y-31816667D02*
X25241666Y-31816667D01*
X25441666Y-31816667D02*
X25441666Y-31116667D01*
X25375000Y-31216667D01*
X25308333Y-31283333D01*
X25241666Y-31316667D01*
X26275000Y-31116667D02*
X25941667Y-31116667D01*
X25908333Y-31450000D01*
X25941667Y-31416667D01*
X26008333Y-31383333D01*
X26175000Y-31383333D01*
X26241667Y-31416667D01*
X26275000Y-31450000D01*
X26308333Y-31516667D01*
X26308333Y-31683333D01*
X26275000Y-31750000D01*
X26241667Y-31783333D01*
X26175000Y-31816667D01*
X26008333Y-31816667D01*
X25941667Y-31783333D01*
X25908333Y-31750000D01*
X21091667Y-30458333D02*
X21658333Y-30458333D01*
X21725000Y-30425000D01*
X21758333Y-30391667D01*
X21791667Y-30325000D01*
X21791667Y-30191667D01*
X21758333Y-30125000D01*
X21725000Y-30091667D01*
X21658333Y-30058333D01*
X21091667Y-30058333D01*
X21091667Y-29791667D02*
X21091667Y-29358334D01*
X21358333Y-29591667D01*
X21358333Y-29491667D01*
X21391667Y-29425000D01*
X21425000Y-29391667D01*
X21491667Y-29358334D01*
X21658333Y-29358334D01*
X21725000Y-29391667D01*
X21758333Y-29425000D01*
X21791667Y-29491667D01*
X21791667Y-29691667D01*
X21758333Y-29758334D01*
X21725000Y-29791667D01*
X24975000Y-32750000D02*
X24941666Y-32783333D01*
X24841666Y-32816667D01*
X24775000Y-32816667D01*
X24675000Y-32783333D01*
X24608333Y-32716667D01*
X24575000Y-32650000D01*
X24541666Y-32516667D01*
X24541666Y-32416667D01*
X24575000Y-32283333D01*
X24608333Y-32216667D01*
X24675000Y-32150000D01*
X24775000Y-32116667D01*
X24841666Y-32116667D01*
X24941666Y-32150000D01*
X24975000Y-32183333D01*
X25641666Y-32816667D02*
X25241666Y-32816667D01*
X25441666Y-32816667D02*
X25441666Y-32116667D01*
X25375000Y-32216667D01*
X25308333Y-32283333D01*
X25241666Y-32316667D01*
X25875000Y-32116667D02*
X26308333Y-32116667D01*
X26075000Y-32383333D01*
X26175000Y-32383333D01*
X26241667Y-32416667D01*
X26275000Y-32450000D01*
X26308333Y-32516667D01*
X26308333Y-32683333D01*
X26275000Y-32750000D01*
X26241667Y-32783333D01*
X26175000Y-32816667D01*
X25975000Y-32816667D01*
X25908333Y-32783333D01*
X25875000Y-32750000D01*
X25000000Y-17600000D02*
X24966666Y-17633333D01*
X24866666Y-17666667D01*
X24800000Y-17666667D01*
X24700000Y-17633333D01*
X24633333Y-17566667D01*
X24600000Y-17500000D01*
X24566666Y-17366667D01*
X24566666Y-17266667D01*
X24600000Y-17133333D01*
X24633333Y-17066667D01*
X24700000Y-17000000D01*
X24800000Y-16966667D01*
X24866666Y-16966667D01*
X24966666Y-17000000D01*
X25000000Y-17033333D01*
X25266666Y-17033333D02*
X25300000Y-17000000D01*
X25366666Y-16966667D01*
X25533333Y-16966667D01*
X25600000Y-17000000D01*
X25633333Y-17033333D01*
X25666666Y-17100000D01*
X25666666Y-17166667D01*
X25633333Y-17266667D01*
X25233333Y-17666667D01*
X25666666Y-17666667D01*
X26100000Y-16966667D02*
X26166667Y-16966667D01*
X26233333Y-17000000D01*
X26266667Y-17033333D01*
X26300000Y-17100000D01*
X26333333Y-17233333D01*
X26333333Y-17400000D01*
X26300000Y-17533333D01*
X26266667Y-17600000D01*
X26233333Y-17633333D01*
X26166667Y-17666667D01*
X26100000Y-17666667D01*
X26033333Y-17633333D01*
X26000000Y-17600000D01*
X25966667Y-17533333D01*
X25933333Y-17400000D01*
X25933333Y-17233333D01*
X25966667Y-17100000D01*
X26000000Y-17033333D01*
X26033333Y-17000000D01*
X26100000Y-16966667D01*
X20591667Y-27975000D02*
X20258333Y-28208334D01*
X20591667Y-28375000D02*
X19891667Y-28375000D01*
X19891667Y-28108334D01*
X19925000Y-28041667D01*
X19958333Y-28008334D01*
X20025000Y-27975000D01*
X20125000Y-27975000D01*
X20191667Y-28008334D01*
X20225000Y-28041667D01*
X20258333Y-28108334D01*
X20258333Y-28375000D01*
X20591667Y-27308334D02*
X20591667Y-27708334D01*
X20591667Y-27508334D02*
X19891667Y-27508334D01*
X19991667Y-27575000D01*
X20058333Y-27641667D01*
X20091667Y-27708334D01*
X19891667Y-26675000D02*
X19891667Y-27008333D01*
X20225000Y-27041667D01*
X20191667Y-27008333D01*
X20158333Y-26941667D01*
X20158333Y-26775000D01*
X20191667Y-26708333D01*
X20225000Y-26675000D01*
X20291667Y-26641667D01*
X20458333Y-26641667D01*
X20525000Y-26675000D01*
X20558333Y-26708333D01*
X20591667Y-26775000D01*
X20591667Y-26941667D01*
X20558333Y-27008333D01*
X20525000Y-27041667D01*
X21566667Y-27975000D02*
X21233333Y-28208334D01*
X21566667Y-28375000D02*
X20866667Y-28375000D01*
X20866667Y-28108334D01*
X20900000Y-28041667D01*
X20933333Y-28008334D01*
X21000000Y-27975000D01*
X21100000Y-27975000D01*
X21166667Y-28008334D01*
X21200000Y-28041667D01*
X21233333Y-28108334D01*
X21233333Y-28375000D01*
X20933333Y-27708334D02*
X20900000Y-27675000D01*
X20866667Y-27608334D01*
X20866667Y-27441667D01*
X20900000Y-27375000D01*
X20933333Y-27341667D01*
X21000000Y-27308334D01*
X21066667Y-27308334D01*
X21166667Y-27341667D01*
X21566667Y-27741667D01*
X21566667Y-27308334D01*
X20866667Y-27075000D02*
X20866667Y-26641667D01*
X21133333Y-26875000D01*
X21133333Y-26775000D01*
X21166667Y-26708333D01*
X21200000Y-26675000D01*
X21266667Y-26641667D01*
X21433333Y-26641667D01*
X21500000Y-26675000D01*
X21533333Y-26708333D01*
X21566667Y-26775000D01*
X21566667Y-26975000D01*
X21533333Y-27041667D01*
X21500000Y-27075000D01*
X43141666Y-40133333D02*
X43241666Y-40166667D01*
X43408333Y-40166667D01*
X43475000Y-40133333D01*
X43508333Y-40100000D01*
X43541666Y-40033333D01*
X43541666Y-39966667D01*
X43508333Y-39900000D01*
X43475000Y-39866667D01*
X43408333Y-39833333D01*
X43275000Y-39800000D01*
X43208333Y-39766667D01*
X43175000Y-39733333D01*
X43141666Y-39666667D01*
X43141666Y-39600000D01*
X43175000Y-39533333D01*
X43208333Y-39500000D01*
X43275000Y-39466667D01*
X43441666Y-39466667D01*
X43541666Y-39500000D01*
X43775000Y-39466667D02*
X43941667Y-40166667D01*
X44075000Y-39666667D01*
X44208333Y-40166667D01*
X44375000Y-39466667D01*
X45008333Y-40166667D02*
X44608333Y-40166667D01*
X44808333Y-40166667D02*
X44808333Y-39466667D01*
X44741667Y-39566667D01*
X44675000Y-39633333D01*
X44608333Y-39666667D01*
M02*
