G04 #@! TF.FileFunction,Soldermask,Top*
%FSLAX46Y46*%
G04 Gerber Fmt 4.6, Leading zero omitted, Abs format (unit mm)*
G04 Created by KiCad (PCBNEW 4.0.7) date Thu Apr 26 00:57:05 2018*
%MOMM*%
%LPD*%
G01*
G04 APERTURE LIST*
%ADD10C,0.100000*%
%ADD11C,0.600000*%
%ADD12R,0.840000X1.640000*%
%ADD13R,1.340000X1.190000*%
%ADD14R,0.850000X1.400000*%
%ADD15R,1.540000X0.390000*%
%ADD16R,0.390000X1.540000*%
%ADD17R,0.740000X1.740000*%
%ADD18C,1.816400*%
%ADD19C,3.442000*%
%ADD20C,2.019600*%
%ADD21R,2.019600X2.019600*%
%ADD22C,5.220000*%
%ADD23R,1.690000X0.740000*%
%ADD24O,3.188000X1.664000*%
%ADD25R,2.740000X1.448000*%
%ADD26C,2.640000*%
%ADD27R,0.902000X1.156000*%
%ADD28O,0.902000X1.156000*%
%ADD29R,0.790000X1.110000*%
%ADD30R,1.110000X0.790000*%
%ADD31R,0.940000X3.540000*%
%ADD32R,1.990000X3.540000*%
%ADD33R,1.040000X0.940000*%
%ADD34R,5.740000X1.740000*%
%ADD35R,5.140000X1.440000*%
%ADD36R,0.640000X0.740000*%
%ADD37C,2.340000*%
%ADD38R,0.740000X0.640000*%
%ADD39R,0.840000X0.810000*%
%ADD40R,0.700000X0.700000*%
%ADD41R,1.000000X1.200000*%
%ADD42R,1.029000X1.130600*%
%ADD43R,1.640000X1.640000*%
%ADD44R,2.140000X0.840000*%
%ADD45R,0.890000X1.340000*%
G04 APERTURE END LIST*
D10*
D11*
X9067307Y-615000D02*
X8592307Y-1665000D01*
X19953845Y-615000D02*
X19478845Y-1665000D01*
X23584614Y-615000D02*
X23109614Y-1665000D01*
X1800000Y-615000D02*
X1325000Y-1665000D01*
X5430769Y-615000D02*
X4955769Y-1665000D01*
X12692307Y-615000D02*
X12217307Y-1665000D01*
X16323076Y-615000D02*
X15848076Y-1665000D01*
X27215383Y-615000D02*
X26740383Y-1665000D01*
X30846152Y-615000D02*
X30371152Y-1665000D01*
X34476921Y-615000D02*
X34001921Y-1665000D01*
X48999997Y-615000D02*
X48524997Y-1665000D01*
X45369228Y-615000D02*
X44894228Y-1665000D01*
X38107690Y-615000D02*
X37632690Y-1665000D01*
X41738459Y-615000D02*
X41263459Y-1665000D01*
X41738459Y-68440000D02*
X41263459Y-69490000D01*
X38107690Y-68440000D02*
X37632690Y-69490000D01*
X48999997Y-68440000D02*
X48524997Y-69490000D01*
X45369228Y-68440000D02*
X44894228Y-69490000D01*
X5430769Y-68440000D02*
X4955769Y-69490000D01*
X1800000Y-68440000D02*
X1325000Y-69490000D01*
X34476921Y-68440000D02*
X34001921Y-69490000D01*
X30846152Y-68440000D02*
X30371152Y-69490000D01*
X27215383Y-68440000D02*
X26740383Y-69490000D01*
X23584614Y-68440000D02*
X23109614Y-69490000D01*
X19953845Y-68440000D02*
X19478845Y-69490000D01*
X16323076Y-68440000D02*
X15848076Y-69490000D01*
X12692307Y-68440000D02*
X12217307Y-69490000D01*
D12*
X25200000Y-37525000D03*
X24200000Y-37525000D03*
X23200000Y-37525000D03*
X22200000Y-37525000D03*
X21200000Y-37525000D03*
X20200000Y-37525000D03*
X19200000Y-37525000D03*
X18200000Y-37525000D03*
X25200000Y-42325000D03*
X24200000Y-42325000D03*
X23200000Y-42325000D03*
X22200000Y-42325000D03*
X21200000Y-42325000D03*
X20200000Y-42325000D03*
X19200000Y-42325000D03*
X18200000Y-42325000D03*
D13*
X32575000Y-56825000D03*
X34575000Y-55275000D03*
X34575000Y-56825000D03*
X32575000Y-55275000D03*
D14*
X33775000Y-63200000D03*
X32825000Y-63200000D03*
X31875000Y-63200000D03*
X31875000Y-65600000D03*
X33775000Y-65600000D03*
D15*
X29725000Y-56850000D03*
X29725000Y-56350000D03*
X29725000Y-55850000D03*
X29725000Y-55350000D03*
X29725000Y-54850000D03*
X29725000Y-54350000D03*
X29725000Y-53850000D03*
X29725000Y-53350000D03*
X29725000Y-52850000D03*
X29725000Y-52350000D03*
X29725000Y-51850000D03*
X29725000Y-51350000D03*
X29725000Y-50850000D03*
X29725000Y-50350000D03*
X29725000Y-49850000D03*
X29725000Y-49350000D03*
D16*
X27775000Y-47400000D03*
X27275000Y-47400000D03*
X26775000Y-47400000D03*
X26275000Y-47400000D03*
X25775000Y-47400000D03*
X25275000Y-47400000D03*
X24775000Y-47400000D03*
X24275000Y-47400000D03*
X23775000Y-47400000D03*
X23275000Y-47400000D03*
X22775000Y-47400000D03*
X22275000Y-47400000D03*
X21775000Y-47400000D03*
X21275000Y-47400000D03*
X20775000Y-47400000D03*
X20275000Y-47400000D03*
D15*
X18325000Y-49350000D03*
X18325000Y-49850000D03*
X18325000Y-50350000D03*
X18325000Y-50850000D03*
X18325000Y-51350000D03*
X18325000Y-51850000D03*
X18325000Y-52350000D03*
X18325000Y-52850000D03*
X18325000Y-53350000D03*
X18325000Y-53850000D03*
X18325000Y-54350000D03*
X18325000Y-54850000D03*
X18325000Y-55350000D03*
X18325000Y-55850000D03*
X18325000Y-56350000D03*
X18325000Y-56850000D03*
D16*
X20275000Y-58800000D03*
X20775000Y-58800000D03*
X21275000Y-58800000D03*
X21775000Y-58800000D03*
X22275000Y-58800000D03*
X22775000Y-58800000D03*
X23275000Y-58800000D03*
X23775000Y-58800000D03*
X24275000Y-58800000D03*
X24775000Y-58800000D03*
X25275000Y-58800000D03*
X25775000Y-58800000D03*
X26275000Y-58800000D03*
X26775000Y-58800000D03*
X27275000Y-58800000D03*
X27775000Y-58800000D03*
D17*
X28125000Y-27475000D03*
X29400000Y-27475000D03*
X30650000Y-27475000D03*
X31925000Y-27475000D03*
X31925000Y-22375000D03*
X30650000Y-22375000D03*
X29400000Y-22375000D03*
X28125000Y-22375000D03*
D18*
X11275000Y-60300320D03*
X13256200Y-60300320D03*
X11275000Y-62799680D03*
D19*
X8557200Y-67569800D03*
X8557200Y-55530200D03*
D18*
X13256200Y-62799680D03*
D20*
X9419860Y-12435260D03*
X9419860Y-15206400D03*
X9419860Y-17975000D03*
X9419860Y-20743600D03*
D21*
X9419860Y-23514740D03*
D20*
X6580140Y-13827180D03*
X6580140Y-16595780D03*
X6580140Y-19354220D03*
X6580140Y-22122820D03*
D22*
X8000000Y-30474340D03*
X8000000Y-5475660D03*
D23*
X13576491Y-12824839D03*
X13576491Y-14094839D03*
X13576491Y-15364839D03*
X13576491Y-16634839D03*
X13576491Y-17904839D03*
X13576491Y-19174839D03*
X13576491Y-20444839D03*
X13576491Y-21714839D03*
X18976491Y-21714839D03*
X18976491Y-20444839D03*
X18976491Y-19174839D03*
X18976491Y-17904839D03*
X18976491Y-16634839D03*
X18976491Y-15364839D03*
X18976491Y-14094839D03*
X18976491Y-12824839D03*
D24*
X41201887Y-58176437D03*
X41201887Y-66685437D03*
X41201887Y-61351437D03*
D25*
X48300000Y-67550000D03*
X48300000Y-57750000D03*
D26*
X47315887Y-61351000D03*
D27*
X28020000Y-64050000D03*
D28*
X26750000Y-64050000D03*
X25480000Y-64050000D03*
X24210000Y-64050000D03*
X22940000Y-64050000D03*
X21670000Y-64050000D03*
X20400000Y-64050000D03*
X26750000Y-62780000D03*
X25480000Y-62780000D03*
X24210000Y-62780000D03*
X22940000Y-62780000D03*
X21670000Y-62780000D03*
X20400000Y-62780000D03*
X28020000Y-62780000D03*
D29*
X16175000Y-65790000D03*
X16175000Y-62310000D03*
D30*
X35010000Y-61800000D03*
X38490000Y-61800000D03*
D31*
X32800000Y-14025000D03*
D32*
X34825000Y-14025000D03*
X30775000Y-14025000D03*
D31*
X32800000Y-9400000D03*
D32*
X34825000Y-9400000D03*
X30775000Y-9400000D03*
D33*
X28825000Y-12675000D03*
X28825000Y-10775000D03*
X26825000Y-11725000D03*
D34*
X39150000Y-15000000D03*
X39150000Y-8400000D03*
X39150000Y-11700000D03*
D35*
X26200000Y-3125000D03*
X26200000Y-6625000D03*
D36*
X12900000Y-46425000D03*
X13900000Y-46425000D03*
X12900000Y-47425000D03*
X13900000Y-47425000D03*
X12900000Y-48425000D03*
X13900000Y-48425000D03*
D37*
X43500000Y-30900000D03*
X43500000Y-27400000D03*
X43500000Y-23900000D03*
X43500000Y-34400000D03*
X43500000Y-12350000D03*
X43500000Y-8850000D03*
X43500000Y-5350000D03*
X43500000Y-15850000D03*
X6500000Y-40950000D03*
X6500000Y-44450000D03*
X6500000Y-47950000D03*
X6500000Y-37450000D03*
X6500000Y-51450000D03*
D36*
X21200000Y-45500000D03*
X22200000Y-45500000D03*
X29075000Y-18350000D03*
X28075000Y-18350000D03*
D38*
X13400000Y-52950000D03*
X13400000Y-51950000D03*
D36*
X15525000Y-50850000D03*
X16525000Y-50850000D03*
X15525000Y-54100000D03*
X16525000Y-54100000D03*
X15525000Y-56100000D03*
X16525000Y-56100000D03*
X43920000Y-53890000D03*
X44920000Y-53890000D03*
X31275000Y-18350000D03*
X32275000Y-18350000D03*
X34250000Y-51850000D03*
X35250000Y-51850000D03*
X34250000Y-52800000D03*
X35250000Y-52800000D03*
X43920000Y-54840000D03*
X44920000Y-54840000D03*
X43920000Y-55790000D03*
X44920000Y-55790000D03*
D38*
X25775000Y-60350000D03*
X25775000Y-61350000D03*
X12425000Y-54625000D03*
X12425000Y-53625000D03*
D36*
X11000000Y-44300000D03*
X12000000Y-44300000D03*
D38*
X11500000Y-41350000D03*
X11500000Y-42350000D03*
D36*
X31750000Y-51550000D03*
X32750000Y-51550000D03*
D38*
X14350000Y-51950000D03*
X14350000Y-52950000D03*
X19850000Y-45000000D03*
X19850000Y-46000000D03*
X11825000Y-14300000D03*
X11825000Y-13300000D03*
X35820000Y-56320000D03*
X35820000Y-55320000D03*
D36*
X24000000Y-18350000D03*
X23000000Y-18350000D03*
X33150000Y-18350000D03*
X34150000Y-18350000D03*
X26900000Y-22050000D03*
X25900000Y-22050000D03*
X32750000Y-50600000D03*
X31750000Y-50600000D03*
X16700000Y-58160000D03*
X17700000Y-58160000D03*
D38*
X26950000Y-44850000D03*
X26950000Y-45850000D03*
D36*
X31750000Y-53550000D03*
X32750000Y-53550000D03*
X33690000Y-58040000D03*
X32690000Y-58040000D03*
D38*
X11825000Y-19575000D03*
X11825000Y-20575000D03*
D36*
X15075000Y-11800000D03*
X16075000Y-11800000D03*
X18775000Y-11800000D03*
X17775000Y-11800000D03*
D38*
X11825000Y-17775000D03*
X11825000Y-16775000D03*
D36*
X29720000Y-65930000D03*
X30720000Y-65930000D03*
D38*
X27775000Y-61350000D03*
X27775000Y-60350000D03*
D36*
X31875000Y-31500000D03*
X32875000Y-31500000D03*
X35250000Y-63050000D03*
X36250000Y-63050000D03*
D39*
X35150000Y-64100000D03*
X36350000Y-64100000D03*
X35150000Y-65800000D03*
X36350000Y-65800000D03*
D40*
X15525000Y-57100000D03*
X16525000Y-57100000D03*
X16525000Y-55100000D03*
X15525000Y-55100000D03*
X9000000Y-41300000D03*
X9000000Y-42300000D03*
X9000000Y-44300000D03*
X9000000Y-45300000D03*
X9000000Y-48300000D03*
X9000000Y-49300000D03*
D41*
X46615000Y-52812000D03*
X46615000Y-51288000D03*
X47885000Y-52812000D03*
X47885000Y-51288000D03*
D42*
X37250000Y-52862800D03*
X37250000Y-51237200D03*
X42250000Y-52862800D03*
X42250000Y-51237200D03*
D40*
X40250000Y-24300000D03*
X40250000Y-23300000D03*
X12425000Y-52850000D03*
X12425000Y-51850000D03*
D43*
X14950000Y-6072000D03*
X14950000Y-3278000D03*
X32025000Y-6072000D03*
X32025000Y-3278000D03*
X16950000Y-6072000D03*
X16950000Y-3278000D03*
X30025000Y-6072000D03*
X30025000Y-3278000D03*
D39*
X33075000Y-17200000D03*
X34275000Y-17200000D03*
X31800000Y-32650000D03*
X33000000Y-32650000D03*
D36*
X24000000Y-31500000D03*
X23000000Y-31500000D03*
D17*
X22860000Y-20025000D03*
X22860000Y-29825000D03*
X24130000Y-20025000D03*
X24130000Y-29825000D03*
X25400000Y-20025000D03*
X25400000Y-29825000D03*
X26670000Y-20025000D03*
X26670000Y-29825000D03*
X27940000Y-20025000D03*
X27940000Y-29825000D03*
X29210000Y-20025000D03*
X29210000Y-29825000D03*
X30480000Y-20025000D03*
X30480000Y-29825000D03*
X31750000Y-20025000D03*
X31750000Y-29825000D03*
X33020000Y-20025000D03*
X33020000Y-29825000D03*
X34290000Y-20025000D03*
X34290000Y-29825000D03*
D36*
X24000000Y-32500000D03*
X23000000Y-32500000D03*
X24000000Y-17350000D03*
X23000000Y-17350000D03*
D43*
X25400000Y-26322000D03*
X25400000Y-23528000D03*
X23375000Y-23528000D03*
X23375000Y-26322000D03*
D44*
X45025000Y-45925000D03*
X45025000Y-43925000D03*
X45025000Y-41925000D03*
D45*
X48575000Y-48775000D03*
X48575000Y-39075000D03*
M02*
