M48
;DRILL file {KiCad 4.0.7} date Thu Apr 26 00:57:08 2018
;FORMAT={-:-/ absolute / metric / decimal}
FMAT,2
METRIC,TZ
T1C0.300
T2C0.500
T3C0.600
T4C0.635
T5C0.800
T6C1.100
T7C2.286
T8C3.302
%
G90
G05
M71
T1
X9.Y-42.7
X9.Y-45.7
X9.Y-49.7
X11.825Y-20.975
X12.02Y-51.85
X14.05Y-6.525
X14.8Y-51.9
X14.95Y-2.375
X15.125Y-55.1
X15.95Y-6.525
X16.198Y-39.562
X16.2Y-38.8
X16.65Y-57.6
X16.95Y-2.375
X16.95Y-11.8
X17.85Y-6.525
X18.025Y-14.05
X18.1Y-39.39
X18.1Y-40.15
X18.2Y-43.225
X19.291Y-56.35
X19.82Y-46.62
X19.84Y-44.44
X20.5Y-60.3
X20.806Y-46.389
X21.611Y-60.552
X22.375Y-61.09
X22.875Y-19.075
X22.875Y-30.775
X23.Y-17.85
X23.Y-32.
X23.25Y-46.05
X23.35Y-22.625
X23.375Y-27.225
X23.55Y-6.625
X24.15Y-55.24
X24.15Y-56.
X24.15Y-56.76
X24.3Y-66.8
X24.825Y-44.475
X25.275Y-33.775
X25.32Y-61.4
X25.4Y-30.775
X25.5Y-22.05
X26.2Y-2.325
X26.2Y-7.425
X26.225Y-11.725
X26.3Y-23.525
X26.95Y-44.45
X27.222Y-57.772
X27.275Y-48.366
X27.3Y-22.325
X27.4Y-46.24
X27.5Y-17.2
X27.72Y-51.07
X27.775Y-61.75
X27.95Y-19.075
X27.95Y-30.775
X28.759Y-51.35
X29.111Y-59.469
X29.125Y-6.075
X29.325Y-65.925
X30.025Y-2.375
X30.475Y-19.075
X30.75Y-57.47
X30.75Y-58.24
X30.75Y-59.01
X31.Y-17.2
X31.025Y-6.075
X31.25Y-50.4
X31.8Y-33.725
X31.925Y-21.425
X32.025Y-2.375
X32.825Y-62.45
X32.925Y-6.075
X32.95Y-32.05
X33.Y-30.775
X33.238Y-51.538
X33.25Y-50.6
X33.325Y-53.575
X33.58Y-56.05
X34.2Y-58.04
X34.225Y-17.8
X34.275Y-30.775
X34.3Y-19.075
X35.82Y-56.82
X36.65Y-63.05
X36.85Y-64.1
X36.85Y-65.8
X39.15Y-10.75
X39.15Y-12.65
X40.25Y-22.9
X41.Y-24.3
X43.875Y-45.925
T4
X20.4Y-62.78
X20.4Y-64.05
X21.67Y-62.78
X21.67Y-64.05
X22.94Y-62.78
X22.94Y-64.05
X24.21Y-62.78
X24.21Y-64.05
X25.48Y-62.78
X25.48Y-64.05
X26.75Y-62.78
X26.75Y-64.05
X28.02Y-62.78
X28.02Y-64.05
T5
X6.58Y-13.827
X6.58Y-16.596
X6.58Y-19.354
X6.58Y-22.123
X9.42Y-12.435
X9.42Y-15.206
X9.42Y-17.975
X9.42Y-20.744
X9.42Y-23.515
X11.275Y-60.3
X11.275Y-62.8
X13.256Y-60.3
X13.256Y-62.8
T6
X6.5Y-37.45
X6.5Y-40.95
X6.5Y-44.45
X6.5Y-47.95
X6.5Y-51.45
X43.5Y-5.35
X43.5Y-8.85
X43.5Y-12.35
X43.5Y-15.85
X43.5Y-23.9
X43.5Y-27.4
X43.5Y-30.9
X43.5Y-34.4
T7
X8.557Y-55.53
X8.557Y-67.57
T8
X8.Y-5.476
X8.Y-30.474
T2
X47.55Y-57.75G85X49.05Y-57.75
G05
X47.55Y-67.55G85X49.05Y-67.55
G05
T3
X41.902Y-58.176G85X40.502Y-58.176
G05
X41.902Y-61.351G85X40.502Y-61.351
G05
X41.902Y-66.685G85X40.502Y-66.685
G05
T0
M30
